<svg xmlns="http://www.w3.org/2000/svg" width="217" height="155"><g fill="none" fill-rule="evenodd"><path fill="#FFF" d="M0 0h217v155H0z"/><path fill="#444" d="M108.265 119.754a41.945 41.945 0 0 1-12.018-1.775c.8.267 1.616.515 2.45.728 1.104.283 2.224.496 3.355.64 1.521.258 3.056.43 4.597.514 2.054.094 4.113.047 6.16-.142 2.282-.186 4.54-.59 6.745-1.207 2.042-.604 4.012-1.367 6.018-2.077.426-.16.834-.355 1.242-.55a2.308 2.308 0 0 1-.266-.32 42.016 42.016 0 0 1-18.283 4.19z"/><path fill="#999" d="M130.613 86.862a6.994 6.994 0 1 0-6.798-6.976 6.94 6.94 0 0 0 6.798 6.976z"/><path fill="#7C7C7C" d="M138.21 107.258c0 .124.196.248.284.39l.426-.461-.301-.409-.409.48zM126.92 115.405l-.372.178c.08.114.168.221.266.32l.355-.16a4.1 4.1 0 0 1-.248-.338z"/><path fill="#999" d="M138.92 107.187c-.142.16-.426-.231-.301-.373a7.402 7.402 0 0 0-5.894-2.929 7.473 7.473 0 0 0-6.177 11.769l.373-.178c.077.117.16.23.248.338l-.355.16a7.455 7.455 0 0 0 13.385-4.545 7.331 7.331 0 0 0-1.279-4.242z"/><path fill="#232323" fill-rule="nonzero" d="M126.548 115.654a7.473 7.473 0 0 1 6.177-11.698 7.402 7.402 0 0 1 5.894 2.822 41.448 41.448 0 0 0-12.053-66.831 7.225 7.225 0 0 1 3.035 4.508 6.692 6.692 0 0 1-1.047 5.326 6.905 6.905 0 0 1-8.059 2.591c-1.1-.4-2.178-.857-3.23-1.367a8.556 8.556 0 0 0-5.326-.994 6.905 6.905 0 0 0-5.787 7.225 7.1 7.1 0 0 0 .71 2.787 7.331 7.331 0 0 0 4.012 3.55c1.207.48 2.397.994 3.55 1.544a6.905 6.905 0 0 1 3.906 4.722 6.728 6.728 0 0 1-.48 4.988 6.603 6.603 0 0 1-3.71 3.337 6.337 6.337 0 0 1-4.704.089c-1.881-.728-3.727-1.562-5.573-2.361l-4.136-1.775c-1.243-.533-2.468-1.065-3.71-1.562a23.857 23.857 0 0 0-3.018-1.136 6.373 6.373 0 0 0-5.804 1.402 6.71 6.71 0 0 0-2.521 6.266 6.55 6.55 0 0 0 3.177 5.06 24.514 24.514 0 0 0 3.302 1.579l6.994 3.053 7.1 3.071 4.296 1.864 3.55 1.597c.923.409 1.775.817 2.77 1.19a6.78 6.78 0 0 1 2.431 1.615 7.242 7.242 0 0 1 1.775 3.674 6.497 6.497 0 0 1-.78 4.687 6.976 6.976 0 0 1-8.876 2.875l-4.58-2.005-8.13-3.55a7.1 7.1 0 0 0-8.112 11.023l.532.656s0 .231.125.267c1.437.603 2.858 1.278 4.313 1.775.55.213 1.118.408 1.686.586a42.087 42.087 0 0 0 30.301-2.45zm4.26-42.602a6.994 6.994 0 1 1 .482 13.98 6.994 6.994 0 0 1-.482-13.98z"/><path fill="#000" d="M88.348 111.18a6.976 6.976 0 0 1 9.355-3.975l8.13 3.55 4.544 2.006a6.976 6.976 0 0 0 8.876-2.876 6.497 6.497 0 0 0 .78-4.686 7.242 7.242 0 0 0-1.774-3.675 6.78 6.78 0 0 0-2.432-1.615c-.941-.373-1.775-.781-2.77-1.19l-3.55-1.597-4.295-1.864-7.1-3.07-6.995-3.054a24.514 24.514 0 0 1-3.301-1.58 6.55 6.55 0 0 1-3.178-5.059 6.71 6.71 0 0 1 2.521-6.266 6.373 6.373 0 0 1 5.84-1.402c1.03.31 2.039.69 3.018 1.136 1.242.497 2.467 1.03 3.71 1.562l4.136 1.775c1.775.799 3.692 1.633 5.573 2.361a6.337 6.337 0 0 0 4.704-.089 6.603 6.603 0 0 0 3.71-3.195c.774-1.48.97-3.194.55-4.81a6.905 6.905 0 0 0-3.905-4.722 57.874 57.874 0 0 0-3.55-1.544 7.331 7.331 0 0 1-4.012-3.55 7.1 7.1 0 0 1-.71-2.787 6.905 6.905 0 0 1 5.787-7.225 8.556 8.556 0 0 1 5.325.994c1.054.51 2.132.966 3.231 1.367a6.905 6.905 0 0 0 8.059-2.592 6.692 6.692 0 0 0 1.047-5.325c-.426-1.935-1.1-4.669-3.035-4.509 1.313-.106-5.698-4.526-18.301-4.526-19.899 0-41.537 16.987-40.241 29.59.479 4.793 3.816 4.527 5.75 11.822 2.61 9.941-2.626 13.917.604 21.177 3.231 7.26 13.03 11.698 13.9 9.444z"/><path fill="#999" d="M90.248 115.654s0-.178-.125-.266l-.532-.657a7.1 7.1 0 0 1 8.112-11.023l8.13 3.55 4.544 1.952a6.976 6.976 0 0 0 8.876-2.875 6.497 6.497 0 0 0 .78-4.687 7.242 7.242 0 0 0-1.774-3.674 6.78 6.78 0 0 0-2.432-1.615c-.941-.373-1.775-.781-2.77-1.19l-3.55-1.597-4.295-1.864-7.1-3.07-6.995-3.054a24.514 24.514 0 0 1-3.301-1.58 6.55 6.55 0 0 1-3.178-5.059 6.71 6.71 0 0 1 2.521-6.266 6.373 6.373 0 0 1 5.84-1.402c1.03.31 2.039.69 3.018 1.136 1.242.497 2.467 1.03 3.71 1.562l4.136 1.775c1.775.799 3.692 1.633 5.573 2.36a6.337 6.337 0 0 0 4.704-.088 6.603 6.603 0 0 0 3.71-3.195c.774-1.48.97-3.194.55-4.81a6.905 6.905 0 0 0-3.905-4.722 57.874 57.874 0 0 0-3.55-1.545 7.331 7.331 0 0 1-4.012-3.55 7.1 7.1 0 0 1-.71-2.787 6.905 6.905 0 0 1 5.787-7.224 8.556 8.556 0 0 1 5.325.994c1.054.51 2.132.966 3.231 1.367a6.905 6.905 0 0 0 8.059-2.592 6.692 6.692 0 0 0 1.047-5.325 7.1 7.1 0 0 0-3.035-4.509c-3.834-2.574-11.077-4.74-18.372-4.668-20.955-.053-38.765 15.3-41.802 36.034-3.036 20.734 9.623 40.549 29.713 46.507a26.996 26.996 0 0 1-1.686-.586c-1.384-.532-2.805-1.207-4.242-1.757z"/></g></svg>