<svg xmlns="http://www.w3.org/2000/svg" width="217" height="155"><g fill="none" fill-rule="evenodd"><path fill="#FFF" d="M0 0h217v155H0z"/><g fill="#000"><path d="M91 80.985l1.556-2.179 2.308-3.15 3.087-4.174 3.034-4.147c1.012-1.391 1.997-2.783 3.009-4.148 0 0 .181 0 .259-.157h19.503l-7.495 10.343h8.455a.491.491 0 0 0 .44-.237l3.295-4.489 2.593-3.727 1.271-1.733a.439.439 0 0 1 .415-.183H152l-.752 1.076-2.594 3.386a285.86 285.86 0 0 1-3.293 4.515c-1.116 1.497-1.79 2.625-2.594 3.754l-3.735 5.25a.692.692 0 0 1-.285 0H91zM33 72.354l.78-1.126 2.603-3.431 3.33-4.558a.52.52 0 0 1 .495-.236H79.24a14.41 14.41 0 0 1 5.465.97 9.235 9.235 0 0 1 3.487 2.383 7.147 7.147 0 0 1 1.77 4.034 9.386 9.386 0 0 1 0 1.702 5.443 5.443 0 0 1-1.068 2.777l-4.085 5.605-.182.262a.571.571 0 0 1-.52.262H68.91a2.872 2.872 0 0 1-1.25-.236c-.442-.183-.572-.471-.364-.89.236-.417.497-.82.781-1.205l2.056-2.881 1.405-1.991a1.79 1.79 0 0 0 .208-.629.553.553 0 0 0-.468-.655 6.801 6.801 0 0 0-1.25-.157H33z"/><path d="M81.967 83.316c-.628.725-1.23 1.425-1.884 2.125-.654.7-1.204 1.2-1.832 1.75a23.473 23.473 0 0 1-3.428 2.499 24.949 24.949 0 0 1-3.69 1.8c-.753.274-1.522.507-2.303.7-.811.224-1.622.399-2.46.549a9.711 9.711 0 0 1-1.465.15c-11.829.25-23.553 0-35.486 0H29c.445-.6.864-1.125 1.282-1.65.419-.525 1.178-1.55 1.78-2.3l2.617-3.373 2.172-2.6c1.047-1.374 2.12-2.724 3.166-4.074l2.827-3.724a.429.429 0 0 1 .392-.15h17.168c.234-.024.471-.024.706 0 .576.125.68.5.419 1a9.317 9.317 0 0 1-.838 1.225c-.994 1.324-2.015 2.624-3.01 3.924l-.47.625c-.262.45-.262 1.024.47 1.15.422.096.851.155 1.283.174h23.03s.026.15-.027.2zM188 83l-.76 1-2.044 2.82-2.988 3.846-1.546 2.103a.554.554 0 0 1-.472.23h-31.45a23.51 23.51 0 0 1-3.276-.256 9.365 9.365 0 0 1-3.197-1.051 4.136 4.136 0 0 1-2.07-2.23 3.34 3.34 0 0 1 0-2.257c.374-.799.85-1.548 1.415-2.23.445-.59.89-1.155 1.31-1.744a.449.449 0 0 1 .42-.205H188V83zM145 80.99l.966-1.335c.888-1.23 1.776-2.435 2.612-3.64l3.473-4.687 2.846-3.901 3.055-4.163a.522.522 0 0 1 .497-.262H179l-.522.733-2.768 3.77-2.768 3.745-1.672 2.225-2.611 3.692c-.783 1.1-1.62 2.148-2.376 3.247-.23.41-.685.637-1.15.576H145zM108 83l-1.013 1.334a99.482 99.482 0 0 1-2.596 3.435c-.908 1.154-1.48 2-2.232 2.975a31.597 31.597 0 0 0-1.48 2.05.548.548 0 0 1-.416.206H81c.234-.359.441-.641.675-.949l1.895-2.564 3.271-4.358 1.402-1.898a.495.495 0 0 1 .442-.23H108zM110 93c.26-.41.493-.718.727-1.026l2.596-3.461c.935-1.257 1.895-2.564 2.83-3.795l1.142-1.539a.809.809 0 0 1 .364-.179H137l-.286.436-2.18 2.897-3.194 4.231-1.713 2.257a.6.6 0 0 1-.338.153H110V93zM34 82.45l-1.516 2.28H2v-2.46l32 .18zM184 92.714l.656-1.08.787-1.2s.236 0 .34-.21h29.824c.393 0 .393 0 .393.48v1.68c0 .57 0 .36-.289.33H184zM31 86.314c-.287.48-.549.9-.836 1.32-.287.42-.366.54-.523.84a.4.4 0 0 1-.391.21H2v-2.37h29zM187 88.685l.63-.96.786-1.2a.686.686 0 0 1 .34-.21h26.849c.446 0 .393 0 .393.48v1.8l-28.998.09zM28 90.3c-.39.6-.756 1.14-1.094 1.71-.209.66-.651.72-1.225.72H2v-2.46l26 .03zM190 84.715c.396-.554.763-1.135 1.097-1.74.266-.543.796-.842 1.333-.75h23.204c.366 0 .366 0 .366.45v1.74c0 .57 0 .33-.287.3-.288-.03 0 0 0 0H190z"/></g></g></svg>