<svg xmlns="http://www.w3.org/2000/svg" width="217" height="155"><g fill="none" fill-rule="evenodd"><path fill="#FFF" d="M0 0h217v155H0z"/><g fill="#121212"><path d="M170.714 86.786a4.31 4.31 0 1 1-4.31-4.215 4.31 4.31 0 0 1 4.31 4.286M16.762 78.19h9.143a4.595 4.595 0 0 0-9.143 0m14.595 2.381a8.19 8.19 0 0 1 0 1.477H16.714a5.119 5.119 0 0 0 5.072 5.023 4.5 4.5 0 0 0 3.88-2.119h5.358a9.381 9.381 0 0 1-9.334 6.167 10.167 10.167 0 0 1-10.309-10.643 9.762 9.762 0 0 1 10.071-10.31 9.714 9.714 0 0 1 9.977 10.31M53.452 90.405h-5.476v-2.381h-.119a6.548 6.548 0 0 1-5.714 3.119c-3.19 0-7.143-1.976-7.143-8.643V70.833h5.524v10.905c0 2.857 1.333 4.429 3.476 4.429s3.905-1.69 3.905-4.953v-10.38h5.524l.023 19.57zM67.833 86.024a5.143 5.143 0 0 0 5-5.476A5.071 5.071 0 0 0 67.881 75a5.143 5.143 0 0 0-5.024 5.524 5.024 5.024 0 0 0 4.976 5.5zm10.215 3.69c0 7.286-3.286 11.12-10.5 11.12A9.095 9.095 0 0 1 57.69 93h5.524a4.19 4.19 0 0 0 4.643 3.333c3.31 0 5.024-2.071 5.024-5.88V88.07h-.12a7.714 7.714 0 0 1-6.237 2.81c-5.072 0-9.238-3.976-9.238-10.31a9.714 9.714 0 0 1 9.524-10.333 7 7 0 0 1 5.928 2.976h.19v-2.38h5.12v18.88zM87.262 78.19h9.143a4.595 4.595 0 0 0-9.143 0m14.571 2.381c.034.492.034.985 0 1.477H87.214a5.119 5.119 0 0 0 5.12 4.928 4.476 4.476 0 0 0 3.856-2.024h5.358a9.333 9.333 0 0 1-9.215 6.143 10.167 10.167 0 0 1-10.428-10.619 10.024 10.024 0 1 1 20.024 0M105.714 70.833h5.453v2.381h.214a6.548 6.548 0 0 1 5.786-3.071c4.428 0 7.476 2.952 7.476 8.952v11.238h-5.548V79.548c0-2.953-1.405-4.477-3.69-4.477-2.286 0-4.167 1.739-4.167 5v10.334h-5.524V70.833zM129.286 90.405h5.524V70.833h-5.524zM144 78.19h9.167a4.595 4.595 0 0 0-9.167 0m14.595 2.381c.034.492.034.985 0 1.477h-14.619a5.119 5.119 0 0 0 5.048 5.023 4.476 4.476 0 0 0 3.928-2.119h5.358A9.333 9.333 0 0 1 149 91.12 10.167 10.167 0 0 1 138.571 80.5a10.024 10.024 0 1 1 20.024 0M184.786 86.286a5.214 5.214 0 0 0 4.904-5.596 5 5 0 1 0-9.928 0 5.095 5.095 0 0 0 5.024 5.596zm10.143 4.119h-5.31v-2.381h-.167a7.548 7.548 0 0 1-6.38 3.119c-3.786 0-8.905-3.072-8.905-10.476A9.524 9.524 0 0 1 183.5 70.38a6.857 6.857 0 0 1 5.952 3.048h.167v-2.596h5.31v19.572zM136.286 60.119a4.31 4.31 0 1 1-8.62 0 4.31 4.31 0 0 1 8.62 0M153.5 60.119a4.31 4.31 0 1 1-8.619 0 4.31 4.31 0 0 1 8.619 0"/><path d="M154.238 60.119a4.31 4.31 0 1 1-8.619 0 4.31 4.31 0 0 1 8.62 0"/><path d="M154.857 60.119a4.31 4.31 0 1 1-4.286-4.31 4.286 4.286 0 0 1 4.286 4.31"/><path d="M155.548 60.119a4.31 4.31 0 1 1-8.62 0 4.31 4.31 0 0 1 8.62 0"/><path d="M156.238 60.119a4.31 4.31 0 1 1-4.38-4.31 4.31 4.31 0 0 1 4.285 4.31"/><path d="M156.929 60.119a4.31 4.31 0 1 1-8.62 0 4.31 4.31 0 0 1 8.62 0"/><path d="M157.619 60.119a4.31 4.31 0 1 1-8.619 0 4.31 4.31 0 0 1 8.619 0"/><path d="M158.31 60.119a4.31 4.31 0 1 1-8.62 0 4.31 4.31 0 0 1 8.62 0"/><path d="M159 60.119a4.31 4.31 0 1 1-8.619 0 4.31 4.31 0 0 1 8.619 0"/><path d="M159.69 60.119a4.31 4.31 0 1 1-8.619 0 4.31 4.31 0 0 1 8.62 0"/><path d="M160.381 60.119a4.31 4.31 0 1 1-8.62 0 4.31 4.31 0 0 1 8.62 0"/><path d="M161.071 60.119a4.31 4.31 0 1 1-8.619 0 4.31 4.31 0 0 1 8.62 0"/><path d="M161.762 60.119a4.31 4.31 0 1 1-8.62 0 4.31 4.31 0 0 1 8.62 0"/><path d="M162.452 60.119a4.31 4.31 0 1 1-8.619 0 4.31 4.31 0 0 1 8.62 0"/><path d="M163.143 60.119a4.31 4.31 0 1 1-8.62 0 4.31 4.31 0 0 1 8.62 0"/><path d="M163.762 60.119a4.31 4.31 0 1 1-4.286-4.31 4.286 4.286 0 0 1 4.286 4.31"/><path d="M164.5 60.119a4.31 4.31 0 1 1-8.619 0 4.31 4.31 0 0 1 8.619 0"/><path d="M165.19 60.119a4.31 4.31 0 1 1-8.619 0 4.31 4.31 0 0 1 8.62 0"/><path d="M165.881 60.119a4.31 4.31 0 1 1-8.62 0 4.31 4.31 0 0 1 8.62 0"/><path d="M166.571 60.119a4.31 4.31 0 1 1-8.619 0 4.31 4.31 0 0 1 8.62 0"/><path d="M167.262 60.119a4.31 4.31 0 1 1-8.62 0 4.31 4.31 0 0 1 8.62 0"/><path d="M167.952 60.119a4.31 4.31 0 1 1-4.19-4.31 4.31 4.31 0 0 1 4.31 4.31"/><path d="M168.643 60.119a4.31 4.31 0 1 1-8.62 0 4.31 4.31 0 0 1 8.62 0"/><path d="M169.333 60.119a4.31 4.31 0 1 1-8.619 0 4.31 4.31 0 0 1 8.62 0"/><path d="M170.024 60.119a4.31 4.31 0 1 1-8.62 0 4.31 4.31 0 0 1 8.62 0"/><path d="M170.714 60.119a4.31 4.31 0 1 1-8.619 0 4.31 4.31 0 0 1 8.62 0M189.643 60.119a4.31 4.31 0 1 1-8.62 0 4.31 4.31 0 0 1 8.62 0M206.857 60.119a4.31 4.31 0 1 1-8.619 0 4.31 4.31 0 0 1 8.62 0M199.881 90.405h5.524V70.833h-5.524z"/></g></g></svg>