<svg xmlns="http://www.w3.org/2000/svg" width="217" height="155"><g fill="none" fill-rule="evenodd"><path fill="#FFF" d="M0 0h217v155H0z"/><path fill="#000" fill-rule="nonzero" d="M109.106 34c24.293.058 43.943 19.795 43.894 44.088-.049 24.294-19.777 43.95-44.07 43.912-24.294-.039-43.96-19.76-43.93-44.053.058-24.309 19.797-43.976 44.106-43.947zm11.589 17.198c-4.975 2.646-28.337 17.595-35.137 22.145a4.895 4.895 0 0 0 0 8.785c11.245 7.54 22.33 15.345 34.237 21.828 1.097.615 2.3 1.02 3.545 1.19a6.35 6.35 0 0 0 6.086-2.646 4.974 4.974 0 0 0-.318-5.82c-3.122-5.292-6.059-10.848-9.287-16.14a4.577 4.577 0 0 1 0-5.53c3.334-5.45 6.456-11.033 9.552-16.615 1.878-3.599-.609-11.536-8.678-7.197z"/><path fill="#231F20" stroke="#000" stroke-width="1.02" d="M100 46l25 39M128 64l-24 40"/></g></svg>