<svg xmlns="http://www.w3.org/2000/svg" width="217" height="155"><g fill="none" fill-rule="evenodd"><path fill="#FFF" d="M0 0h217v155H0z"/><g fill="#000"><path d="M86.59 46.912c5.632-10.875 18.575-15.732 29.973-11.249 11.398 4.483 17.562 16.856 14.273 28.652-.364-.296-.706-.546-1.025-.842a47.292 47.292 0 0 1-6.266-8.27 34.718 34.718 0 0 0-6.333-7.562 14.082 14.082 0 0 0-18.66 0 4.146 4.146 0 0 0-1.117 1.8 2.437 2.437 0 0 0 1.253 2.71 2.62 2.62 0 0 0 3.099-.319 8.864 8.864 0 0 1 5.012-2.278 8.635 8.635 0 0 1 2.53 17.062 10.003 10.003 0 0 1-9-3.371 30.572 30.572 0 0 1-4.17-5.057 38.226 38.226 0 0 0-9.57-11.276z"/><path d="M121.111 62.498c1.14 1.449 2.236 2.876 3.354 4.169 1.118 1.293 2.572 2.452 3.868 3.678-5.68 10.368-18.228 14.877-29.235 10.506-11.008-4.372-17.01-16.25-13.984-27.672a19.803 19.803 0 0 1 2.057 2.051c1.588 2.23 3.153 4.258 4.628 6.465a27.503 27.503 0 0 0 8.944 9.074c3.602 2.16 8 2.55 11.927 1.058a13.66 13.66 0 0 0 8.196-8.705c.089-.2.156-.357.245-.624z"/><path fill-rule="nonzero" d="M111.959 98.247v-1.368-4.56a1.817 1.817 0 0 1 .506-1.423c.363-.368.864-.541 1.362-.47.518-.05 1.03.148 1.396.54.366.394.547.94.493 1.49v20.931c-.017 1.624.313 3.23.967 4.697.622 1.369.45 2.395-.473 2.987-.923.593-1.868.274-2.748-.934l-.28-.342-.579.387c-2.71 2.116-6.317 2.408-9.297.753-2.777-1.47-4.465-4.554-4.294-7.844v-7.183c-.113-4.112 2.627-7.692 6.441-8.413a8.935 8.935 0 0 1 5.647.524l.58.274s.107-.023.279-.046zm0 11.4V106a4.543 4.543 0 0 0-1.104-3.29c-.782-.886-1.875-1.388-3.018-1.385a3.772 3.772 0 0 0-3.164.738c-.907.714-1.483 1.807-1.582 3.002a48.682 48.682 0 0 0-.128 8.482c.193 3.101 2.147 4.56 5.281 4.287 2.271-.298 3.924-2.434 3.758-4.857l-.043-3.33zM55.43 104.564c.605-3.251 3.429-5.72 6.9-6.032 3.56-.813 7.27.627 9.202 3.571a8.948 8.948 0 0 1 1.472 5.03c.104 2.55.035 5.102-.207 7.643-.207 2.272-1.441 4.349-3.385 5.697-1.944 1.347-4.408 1.834-6.76 1.336-4.536-.469-7.886-4.224-7.614-8.536-.111-2.908.02-5.82.392-8.71zm13.457 2.047c.038-2.55-2.115-4.646-4.808-4.682-2.693-.036-4.908 2.002-4.946 4.55v7.295c.04 2.115 1.68 3.897 3.888 4.224 3.105.327 5.107-.762 5.659-3.288.237-2.693.306-5.398.207-8.1zM143.233 104.89c.642-3.967 4.4-6.816 8.658-6.566 2.455-.147 4.859.7 6.607 2.326 1.747 1.627 2.672 3.878 2.541 6.187v6.96c-.048 3.295-2.155 6.254-5.377 7.55-3.49 1.325-7.484.597-10.195-1.86-1.55-1.522-2.43-3.539-2.467-5.646v-6.763c.032-.733.11-1.464.233-2.188zm3.724 8.491c-.16 2.38 1.733 4.442 4.26 4.64 3.468.131 5.353-1.138 5.586-4.224a49.19 49.19 0 0 0 0-7.857c-.089-1.106-.647-2.133-1.548-2.85a4.588 4.588 0 0 0-3.247-.958 4.637 4.637 0 0 0-3.272.964c-.91.72-1.475 1.752-1.57 2.866-.232 1.357-.256 6.325-.21 7.42z"/><path d="M80.09 99.08a19.479 19.479 0 0 1 3.945-1.662c6.686-1.325 10.244 3.077 10.395 8.175.13 4.491 0 8.848 0 13.25.06.545-.118 1.09-.486 1.481-.369.393-.887.591-1.412.54a1.734 1.734 0 0 1-1.368-.583 1.89 1.89 0 0 1-.465-1.46v-12.24a8.946 8.946 0 0 0-.173-1.864c-.435-2.316-2.517-3.885-4.765-3.594a4.108 4.108 0 0 0-2.963 1.348 4.46 4.46 0 0 0-1.156 3.144v12.42c.033.373.033.749 0 1.122-.062.521-.33.992-.74 1.299-.409.307-.922.422-1.417.318a1.724 1.724 0 0 1-1.215-.642 1.87 1.87 0 0 1-.402-1.357v-12.33a12.695 12.695 0 0 0-1.186-5.995c-.457-.805-.262-1.838.453-2.403.828-.523 1.901-.32 2.501.471l.453.562zM135.786 119.833c-2.137 1.85-4.976 2.569-7.691 1.95-3.688-.658-6.404-3.952-6.464-7.843-.15-4.481 0-9.097 0-13.623-.058-.525.11-1.05.459-1.434a1.69 1.69 0 0 1 1.35-.56 1.662 1.662 0 0 1 1.417.489c.374.38.56.92.501 1.46v12.033c-.015.69.036 1.38.151 2.06.344 2.323 2.416 3.93 4.654 3.608a4.228 4.228 0 0 0 3.347-1.436 4.597 4.597 0 0 0 1.113-3.583v-12.3c0-1.367.474-2.129 1.487-2.241a1.719 1.719 0 0 1 1.593.43c.43.407.64 1.01.561 1.609v10.598c-.043 1.316 0 2.633.13 3.943a14.62 14.62 0 0 0 .904 3.294c.517 1.322.431 2.24-.474 2.823-.905.583-1.831.38-2.714-.74 0-.201-.13-.313-.324-.537z"/></g></g></svg>