<svg xmlns="http://www.w3.org/2000/svg" width="217" height="155"><g fill="none" fill-rule="evenodd"><path fill="#FFF" d="M0 0h217v155H0z"/><g fill="#000"><path fill-rule="nonzero" d="M128.619 123c-3.915-4.355-7.71-8.466-11.314-12.528a2.552 2.552 0 0 0-2.666-.925c-20.38 3.61-39.878-9.924-43.904-30.477-4.027-20.554 8.891-40.602 29.09-45.145 20.197-4.543 40.28 8.081 45.224 28.428a45.435 45.435 0 0 1-.84 22.551A187.477 187.477 0 0 1 128.618 123zm-18.784-39.847h14.22c1.513 0 2.018-.487 1.994-2.02V61.672c0-1.508-.553-1.873-1.922-1.849h-12.73c-1.154 0-1.61-.316-1.562-1.557v-5.692c0-1.265-.312-1.85-1.201-1.946h-2.858c-.937.145-1.322.802-1.25 2.165.145 2.286 0 4.597 0 7.006H90.114c-1.009 0-1.777.121-1.777 1.435v20.41c0 1.265.648 1.509 1.73 1.509h14.459v7.298c0 1.216.385 1.848 1.658 1.751a7.33 7.33 0 0 1 1.633 0c1.586.195 2.186-.438 2.09-2.068-.144-2.189-.072-4.5-.072-6.981z"/><path d="M121.02 77.536h-9.488c-.251 0-.707-.726-.707-1.124v-9.72c0-.937.388-1.218 1.254-1.218h7.733c.433 0 1.186.61 1.209.96.023 3.584 0 7.238 0 11.102zM94.15 71.587v-4.648c0-1 .228-1.487 1.32-1.464h7.584c.979 0 1.298.372 1.275 1.348v9.296c0 1.115-.41 1.417-1.435 1.417h-7.4c-1.048 0-1.412-.395-1.367-1.464.069-1.487.023-3.021.023-4.485z"/></g></g></svg>