<svg xmlns="http://www.w3.org/2000/svg" width="217" height="155"><g fill="none" fill-rule="evenodd"><path fill="#FFF" d="M0 0h217v155H0z"/><path fill="#000" fill-rule="nonzero" d="M110.678 96.644v5.402c.007.488-.194.956-.552 1.287-1.172.897-2.46 1.656-3.862 2.552v-1.218-18.391a5.31 5.31 0 0 1 5.265-5.61c5.057-.107 10.13-.107 15.218 0a4.598 4.598 0 0 1 4.598 4.92v5.77a4.85 4.85 0 0 1-5.425 5.219c-5.035.092-10 .069-15.242.069zm7.862-2.92h5.058a2.713 2.713 0 0 0 3.057-2.758 44.69 44.69 0 0 0 0-4.598 2.598 2.598 0 0 0-2.712-2.759h-10.437c-1.517 0-2.483.713-2.598 2.184a34.276 34.276 0 0 0 0 5.747c.138 1.494 1.058 2.138 2.598 2.3l5.034-.116z"/><path fill="#000" d="M71.713 80.782h4.413v25.057c-1.47-.965-2.827-1.816-4.137-2.782-.253-.16-.276-.735-.276-1.126v-5.287H56.609a4.736 4.736 0 0 1-4.85-4.966V80.851h4.758v9.54c0 2.46.92 3.402 3.38 3.402h8.735c2.115 0 3.104-.965 3.104-3.057l-.023-9.954zM101.437 49.425h-2.3l-61.034.874-13.793.23a4.115 4.115 0 0 0-4.597 3.448 546.12 546.12 0 0 0-3.173 10.989 1.241 1.241 0 0 1-1.448 1.103h-4.598c1.127-4.299 2.023-8.552 3.357-12.644a6.575 6.575 0 0 1 6.023-4.597H101.46l-.023.597zM207.897 88.759c-1.012 3.977-1.954 7.793-2.897 11.494a7.655 7.655 0 0 1-7.494 5.793H117.85a4.138 4.138 0 0 1-.897-.184v-.39c.506 0 .989-.139 1.494-.139l25.77-.367 50.276-.828a4 4 0 0 0 4.161-3.264 812.216 812.216 0 0 0 3.058-10.667c.321-1.127.758-1.724 2.092-1.563 1.36.119 2.726.157 4.092.115z"/><path fill="#000" d="M193.069 87.264a49.356 49.356 0 0 1-.46 5.84 4.253 4.253 0 0 1-4.299 3.47h-20.988s-.161 0-.276-.16a4.115 4.115 0 0 1 4.345-2.805c4.207.253 8.437 0 12.666 0 3.449.138 4.46-1.402 3.886-4.598h-19.54a30.575 30.575 0 0 1 0-4.367 4.92 4.92 0 0 1 5.333-4.161h16.092a3.61 3.61 0 0 1-3.885 2.92h-9.54c-2.483 0-3.334.965-3.127 3.677l19.793.184zM49.92 89.103H32.908c.644-1.195 1.264-1.908 2.713-1.862H45c.46-2.298-.598-3.655-2.805-3.655H33a2.529 2.529 0 0 0-2.828 2.736v4.598A2.529 2.529 0 0 0 33 93.678h6.897a3.655 3.655 0 0 1 3.494 1.517c.322.437.735.805 1.333 1.449H30.931a4.92 4.92 0 0 1-5.586-5.61v-5.356a4.598 4.598 0 0 1 4.598-4.942c4.965-.092 9.946-.092 14.942 0a4.92 4.92 0 0 1 4.85 4.873c.254 1.08.185 2.207.185 3.494zM97.23 96.667H83.874a5.011 5.011 0 0 1-4.966-2.69 4.598 4.598 0 0 1-.437-1.747v-6.897a4.598 4.598 0 0 1 4.345-4.597h15.632a4.598 4.598 0 0 1 4.322 4.344v3.977H85.552c.643-1.195 1.264-1.93 2.712-1.862h9.816c.138-2.62-.804-3.655-3.172-3.678h-8.736c-2.092 0-3.034.897-3.103 2.943v4.368a2.598 2.598 0 0 0 2.942 2.804h7.472a4.138 4.138 0 0 1 3.747 3.035zM142.471 80.759h4.759v10.275c0 2.736.781 3.518 3.471 3.518h7.333a2.736 2.736 0 0 0 3.08-3.104v-10.69h4.737c0 3.932.138 7.817 0 11.702a4.598 4.598 0 0 1-4.46 4.115c-4.828.092-9.663.092-14.506 0a4.598 4.598 0 0 1-4.345-4.598c-.092-3.632-.069-7.333-.069-11.218zM102.517 57.747c3.449-1.126 5.357.46 7.265 2.299 2.574 2.506 5.264 4.897 8.16 7.563v-8.506c0-.528-.666-1.011-1.08-1.586h4.782c-2 .966-1.518 2.598-1.54 4.046V74l-12.437-11.494h-.322c.506 3.563-.85 7.287.873 10.827h-4.252c1.977-1.057 1.494-2.69 1.494-4.138v-7.057c0-2.345.092-3.885-2.943-4.39z"/><path fill="#000" fill-rule="nonzero" d="M99.16 73.287h-5.31a9.195 9.195 0 0 0 0-2.298c-.16-.92-.85-1.265-1.861-1.219h-6.046c-2.023 0-3.08 1.54-2.023 3.632h-4.207l9.954-16.092 4.597 8.23c1.035 1.816 2.046 3.678 3.127 5.471.548.79 1.14 1.55 1.77 2.276zm-13.126-6.092h5.84l-2.644-5.057-3.196 5.057z"/><path fill="#000" d="M139.276 74.69v21.839h-4.46V74.69zM43.805 61.08a9.517 9.517 0 0 0-7.61-1.586v11.012c.147.95.394 1.883.736 2.781h-4.598c.332-.896.548-1.83.644-2.781V59.379a9.448 9.448 0 0 0-7.448 1.587c.505-1.104.965-2.3 1.54-3.288.115-.207.644-.322.988-.322h13.219c.428.037.821.255 1.08.598a13.514 13.514 0 0 1 1.449 3.126zM67.184 59.494c-2.782-.115-5.38-.345-7.563 1.747.528-1.149 1.011-2.298 1.609-3.402.138-.23.644-.322.965-.345H75.3c.537.102 1.01.418 1.31.874.493.932.871 1.92 1.127 2.942a8.414 8.414 0 0 0-7.449-1.816v11.219c.194.877.455 1.738.782 2.574h-4.598c.318-.972.541-1.973.667-2.988.115-3.563.046-7.173.046-10.805zM54.103 73.287h-4.597a20.85 20.85 0 0 0 .62-3.218V59.54a8.184 8.184 0 0 0-.62-2.092h5.218c-1.862 1.104-1.264 2.828-1.287 4.368v8.713c.124.94.348 1.865.666 2.758z"/><path fill="#FFF" d="M118.54 93.724h-5.08c-1.54 0-2.46-.69-2.598-2.299a34.276 34.276 0 0 1 0-5.747c0-1.471 1.08-2.16 2.598-2.184h10.437a2.598 2.598 0 0 1 2.758 2.736 44.69 44.69 0 0 1 0 4.598 2.713 2.713 0 0 1-3.057 2.758h-5.058v.138zM86.034 67.241l3.196-5.103 2.644 5.103z"/></g></svg>