<svg xmlns="http://www.w3.org/2000/svg" xmlns:xlink="http://www.w3.org/1999/xlink" width="474" height="575"><defs><path id="a" d="M0 .068h124.03V101.23H0z"/></defs><g fill="none" fill-rule="evenodd"><path fill="#050505" d="M128.818 113.138c1.796.077 2.49.397 2.495 2.405.018 12.207.457 24.414.26 36.612-.283 17.136-.99 34.263-1.54 51.395-.04 1.273-.068 2.779.741 3.847.525.702 1.837 1.679 2.6.77.247-.287.352-.67.425-1.049.292-1.634.48-3.272.598-4.933.11-1.61.115-3.217.229-4.828.31-4.532.566-9.063.767-13.6.416-9.044.645-18.089.754-27.138.12-9.018.115-18.044.069-27.066-.028-4.961-.064-9.917-.1-14.877-.037-4.632-1.371-6.088-6.333-6.32-10.3-.48-20.543-1.886-30.879-1.813-5.962.037-11.939.1-17.888-.246-20.47-1.187-40.948-2.04-61.463-1.488-2.6.069-5.21-.123-7.786.671-1.426.438-3.217.498-2.897 2.414.297 1.77 2.097 1.684 3.578 1.638 30.27-.885 60.444 2.081 90.687 2.355 8.563.073 17.12.9 25.683 1.25"/><path fill="#050505" stroke="#000" d="M279.867 105.04c-2.435.57-4.734.74-8.165.379 16.047-9.602 34.09-8.383 44.147 9.287 1.128 1.985 2.102 4.116 2.728 6.297.402 1.397.8 3.359-1.34 4.044-2.124.67-2.878-1.06-3.39-2.506-.959-2.765-2.311-5.275-3.984-7.657-7.214-10.31-15.777-13.193-29.996-9.844m39.792 27.796c.156 1.771-.904 2.82-2.403 2.926-1.709.132-2.947-.858-3.03-2.793-.072-1.648 1.097-2.131 2.404-2.52 1.261.434 2.865.475 3.03 2.387M131.17 275.4c.754-.63 1.727-1.009 2.618-1.456 7.1-3.587 13.872-7.721 20.652-11.865 1.572-.967 3.925-3.331 5.25-1.428 1.476 2.117-1.773 2.993-3.17 4.125-6.567 5.317-14.083 9.045-21.654 12.66-.777.369-1.617.606-2.326.875-.913.078-1.462-.283-1.855-.99-.452-.812.01-1.524.485-1.921m14.575-68.297c1.334-1.543 2.723-.553 3.898-.046 12.286 5.294 22.36 14.485 28.557 26.34a66.821 66.821 0 0 1 2.494 5.344c.768 1.849 1.472 3.747 1.974 5.686.722 2.812-.726 4.04-3.24 4.121-4.527-.684-8.553-2.08-12.098-4.782-5.081-3.875-9.536-8.57-13.095-13.882-3.715-5.536-6-11.614-8.207-17.857-.105-.297-.21-.594-.31-.89-.457-1.287-.983-2.875.027-4.034m26.168 47.346c-.485 2.775-3.075 3.4-4.871 4.66-1.16-.051-2.257-.8-1.869-1.425 1.28-2.008 3.244-3.436 5.387-4.463.695-.337 1.476.539 1.353 1.228m76.519-132.916c.863 1.784-1.814 3.117-2.778 1.387-.485-.858-1.006-1.68-1.636-2.455-.558-.69-.987-1.657-.114-2.314.767-.584 1.882-.374 2.513.356.827.963 1.507 1.971 2.015 3.026m-10.83-.927c-.42-.497-.15-1.46.668-1.78 1.21-.47 2.266-.173 3.089.863 1.407 1.766 2.353 3.696 3.056 5.983.521 1.684-1.768 2.779-2.773 1.328-1.55-2.241-2.481-4.55-4.04-6.394m-13.122 60.718c-6.232 2.742-13.415 2.195-20.022-.06-4.025-1.373-4.756-3.637-2.682-7.434 2.984-5.444 6.077-10.838 9.38-16.095 4.19-6.663 6.548-13.75 6.274-21.686-.164-4.782.256-9.551 1.549-14.183.795-2.848.489-3.683-.041-4.012 9.773 4.847 17.468 10.47 17.883 22.567.26 7.676.069 15.383.727 23.027.772 8.936-4.469 14.092-13.068 17.876m.32 23.15c-2.687 3.099-6.438 4.057-10.19 4.947-1.26.297-2.302-.22-2.562-1.638-.233-1.292.461-1.693 1.667-1.908 3.258-.58 6.256-1.802 8.951-3.797 1.152-.853 2.509-.967 3.637.416-.64.853-1.037 1.446-1.503 1.98M221.702 92.77c1.051.155 1.75.894 1.76 2.1-.174 1.122-.92 1.81-1.975 1.902-1.224.114-1.919-.826-1.877-1.88.036-1.16.589-2.341 2.092-2.122m-6.314 3.372c-1.668 1.456-1.938 3.108-1.01 5.02.557 1.137.21 2.017-.809 2.547-1.202.634-1.937-.26-2.426-1.141-1.23-2.2-1.869-4.514-.736-6.978.658-1.446 1.769-2.245 3.413-2.177.86.019 1.782-.068 2.262.886.434.84-.242 1.446-.694 1.843M326.33 255.914c-3.33-7.804-7.328-15.32-9.905-23.438-5.954-18.747-7.718-37.562-.983-56.515 3.34-9.378 5.748-19.002 8.124-28.65 2.687-10.892 4.898-21.585.398-32.697-6.872-16.962-18.848-24.387-33.716-23.529-9.216.534-18.327 2.743-27.543 3.633-10.673 1.03-21.42 1.766-31.526-3.318-3.085-1.556-6.224-3.208-9.522-4.094-11.263-3.007-16.893.361-16.015 13.125.566 8.187 6.14 13.001 12.496 17.214-2.568.397-3.459 2.487-3.97 4.568-.654 2.66-1.298 5.44-1.216 8.145.361 11.386-2.485 21.718-9.147 31.023-1.85 2.578-3.313 5.435-4.912 8.192-5.163 8.935-3.294 14.133 6.424 17.058 1.933.584 2.54 1.177 2.495 3.103-.26 11.035 1.855 21.928 1.85 32.98 0 7.083 5.095 15.325 16.052 14.261 6.397-.625 12.021-3.07 17.45-6.201 1.16-.671 3.193-2.182 4.655-1.767 1.522.43 1.53 2.748 1.755 3.962.809 4.38.562 8.898.196 13.311a100.95 100.95 0 0 1-1.288 9.734c-.521 2.866-.973 6.28-2.55 8.803-1.955 3.788-5.126 6.681-8.736 8.88-18.56 11.332-32.386 27.076-40.528 47.488-7.74 19.409-11.889 39.817-16.732 60.029-.498 2.09-1.147 4.207-1.828 6.393-16.892-24.793-33.916-49.423-43.918-78.19-2.198 1.4-1.974 2.719-1.718 4.243 1.133 6.745 3.33 13.148 6.223 19.308.914 1.949 1.097 3.574.17 5.673-9.007 20.367-23.12 36.964-38.546 52.621-1.681 1.712-2.184.968-2.764-.885-1.165-3.696-2.637-7.302-3.788-11.007-8.307-26.528-10.504-53.594-6.525-81.084 1.76-12.153 3.825-24.287 6.379-36.29 1.398-6.575.708-13.653 4.336-19.695 1.407-2.341 2.11-6.398 5.57-5.654 2.933.634 2.7 4.403 2.938 7.078.667 7.584.936 15.073 4.285 22.324 3.72 8.05 6.091 16.648-2.732 23.644-1.366 1.081-1.412 2.925-.206 4.317 1.28 1.483 2.902 1.168 4.31.132.986-.725 5.491-4.034 8.754-6.89.374-.334 1.347.834 2.179 1.446.918.675 2.248.338 3.377-.096 19.487-7.557 37.79-17.181 52.983-31.757 9.6-9.223 9.91-10.743 4.025-22.088-.329-.638-.52-1.346-.854-1.99-7.434-14.274-18.053-25.044-33.546-30.506-2.56-.904-5.794-.698-7.919 1.127-1.083.926-2.092 1.926-3.08 2.943-2.64 2.739-5.144 5.604-7.575 8.53-6.771 8.16-13.479 16.501-19.432 25.3-.019.027-.037.05-.055.077-.768-1.465-1.211-2.34-1.682-3.194-3.586-6.517-8.439-6.668-12.528-.36-2.056 3.17-3.514 6.616-4.309 10.317-2.225 10.437-4.464 20.87-6.639 31.315-5.405 26.044-7.397 52.193-2.028 78.506.566 2.77-.311 4.645-2.148 6.47-6.04 5.983-10.49 13.08-14.05 20.733-2.938 6.306-3.984 12.974-3.052 19.892.74 5.499 4.478 8.803 9.997 8.922 5.03.114 9.275-2.095 13.287-4.76 5.584-3.706 10.674-8.078 15.393-12.805 16.139-16.155 30.833-33.382 39.446-54.78 17.417 30.096 37.092 58.91 54.116 89.704.65 1.168 2.472.292 1.901-.917-.192-.402-.43-.758-.585-1.105-4.697-10.523-9.426-21.033-14.95-31.159-1.065-1.958-1.544-3.628-.859-6.051 1.841-6.508 3.093-13.184 4.61-19.797a390.194 390.194 0 0 1 13.598-46.045c10.299-28.312 31.655-45.33 58.078-57.135 9.536-4.263 19.73-5.732 30.184-5.353 4.217.15 8.443.023 12.66.05 1.764.01 3.295-.356 3.405-2.455.105-2.035-1.184-2.811-3.057-2.788-11.172.173-22.407-.85-33.437 1.788-6.132 1.465-11.02 3.003-17.376 5.358.63-.233.553-1.985.607-2.528.133-1.337.307-2.67.48-4.002.411-3.09.887-6.166 1.458-9.228 1.096-6.991 1.955-15.046-1.248-21.622-1.1-2.263-1.457-1.985.439-3.55 7.132-5.869 9.284-13.362 6.822-22.229-1.394-5.006-2.833-9.998-4.09-15.046-1.663-6.708-2.353-13.444.635-20.015 1.737-3.81 7.544-7.42 10.93-6.49 4.062 1.11 6.264 4.3 6.748 8.247.439 3.527-.776 6.927-3.212 9.601-2.129 2.332-1.745 4.318.11 6.494 1.247 1.465 2.75 2.574 4.382 3.523 6.88 4.02 14.187 7.124 21.813 9.392 3.294.981 6.716 1.734 10.234 1.328.142 3.455.238 6.91.453 10.36.077 1.29.507 2.56.649 3.85 1.777 16.023 7.94 30.585 14.89 44.896.69 1.41 1.69 2.52 3.413 1.602 1.979-1.045.233-2.382-.137-3.258"/><path fill="#FFF337" d="M449.214 62.85c-.205-1.47-.822-2.556-2.449-2.501-1.914.064-2.878 1.374-3.088 3.053-.201 1.574.886 2.41 2.403 2.373 1.841-.055 2.888-1.118 3.134-2.925m-76.308-32.346c6.634 8.41 7.301 8.51 14.539 1.072 1.279-1.314 1.708-.296 2.38.233 3.148 2.505 6.278 2.268 8.974-.47 1.732-1.766 2.467-.744 3.751.397 4.418 3.934 7.973 4.349 13.068 1.551 1.224-.666 2.024-1.15 3.45-.2 3.947 2.628 8.142 2.154 11.847-.352 2.134-1.437 3.614-1.291 5.766-.264 4.08 1.953 8.622.812 11.473-2.474 1.18-1.36 2.422-2.966 1.051-4.632-1.521-1.848-3.139-.538-4.519.589-1.731 1.42-3.417 2.702-5.89 1.61-2.64-1.163-10.307.453-12.834 1.228-2.371.73-3.989-.214-5.227-2.587-1.814-3.464-3.591-3.382-6.186-.16-3.546 4.4-5.872 4.404-9.696.018-3.007-3.445-5.227-3.655-8.188-.191-2.024 2.368-3.28 2.469-5.428.128-2.933-3.195-4.98-2.789-7.164.894-.37.62-.622 1.31-.97 1.949-1.94 3.523-2.955 3.641-5.016.36-1.234-1.958-2.166-4.098-3.267-6.138-.886-1.629-2.156-2.98-4.13-2.505-1.723.415-2.084 2.035-2.481 3.71-.992 4.066-.133 8.46-2.29 12.299-.42.748-.721 1.716-1.704 1.757-1.023.04-1.375-.968-1.736-1.716-1.946-3.998-2.216-8.365-2.714-12.678-.16-1.36.484-3.304-1.563-3.495-2.175-.206-2.508 1.985-2.6 3.381-.383 5.71.22 11.354 3.25 16.365 2.9 4.81 7.74 4.764 10.796.046 1.919-2.953 2.284-6.385 2.632-9.734.36 0 .57-.06.626.009zm-23.66-8.607c-.004-3.076.307-5.85 4.451-6.083 24.372-1.355 48.734-2.839 73.106-4.185 12.766-.707 25.587.762 38.344-.95 4.062-.542 6.031 1.265 6.474 5.573 1.723 16.684.558 33.386.663 50.084.032 5.38.726 10.702.84 16.064.11 4.947-.653 5.795-5.766 5.882-6.817.119-13.625.388-20.465.251-19.194-.388-38.408-.182-57.612-.32-4.788-.031-9.576-.405-14.351-.78-1.997-.155-3.093.511-4.186 2.227-4.605 7.26-10.148 13.796-16.019 20.066-1.128 1.21-2.11 2.597-3.98 1.885-1.708-.657-1.485-2.291-1.503-3.738l-.091-7.406c4.144-4.883 7.516-10.277 10.486-15.932.75-1.432 1.407-2.514 3.5-2.519 8.869-.013 17.733-.328 26.601-.492 22.7-.425 45.349 1.31 68.03 1.688 6.059.1 7.352-1.501 6.963-7.626-.745-11.6-1.339-23.205-1.22-34.842.078-7.552-.027-15.11-.237-22.667-.055-1.916-.174-4.677-2.906-4.563-2.714.119-2.509 2.847-2.522 4.787-.046 6.101.027 12.207.191 18.309.343 12.773.366 25.564 1.96 38.278.165 1.32 1.303 4.034-1.992 3.46-7.497-1.31-15.087-.85-22.612-1.205-24.253-1.141-48.529-2.268-72.814-.434-3.024.228-4.756 1.296-6.182 3.783-2.44 4.258-3.76 9.114-7.045 12.897-.037-23.826-.078-47.661-.105-71.492z"/><path fill="#050505" d="M88.053 525.028c-.667 2.282 1 2.35 3.171 1.89 7.704-1.625 14.969-4.377 21.612-8.62 3.3-2.105 6.525-4.34 8.773-7.667 1.713-2.542 2.71-5.481 1.064-8.133-1.718-2.765-4.948-2.738-7.858-2.094-9.043 2.017-16.545 6.767-22.732 13.544-2.618 2.866-3.564 6.558-4.03 11.08M32.48 469.942c10.546 4.35 20.292 3.656 29.823-1.834 4.701-2.702 8.42-5.937 9.485-11.632.955-5.111-.671-7.507-5.725-6.718-13.771 2.15-24.682 9.205-33.583 20.184m180.562 84.097c-17.837 12.248-37.402 19.937-59.215 20.394-22.49.474-42.653-6.248-59.572-21.499-5.054-4.563-8.778-10.094-10.5-16.73-.672-2.578-1.896-3.19-4.46-3.258-17.353-.443-33.057-5.522-46.6-16.743-13.858-11.478-17.468-26.67-9.664-42.815 1.092-2.254 1.056-3.409-.923-4.947-13.767-10.72-16.96-25.729-16.449-41.98.667-21.389 10.413-39.396 21.973-56.628 11.88-17.697 26.264-33.259 41.291-48.277.713-.716 1.44-1.479 2.299-1.98 1.023-.598 2.261-.909 3.22.136 1.06 1.16.275 2.173-.534 3.044a1209.063 1209.063 0 0 1-10.719 11.46c-16.037 16.889-31.298 34.426-41.826 55.382-9.22 18.359-12.898 37.68-7.383 58.029 1.8 6.626 5.78 11.879 10.49 16.712 1.947 2.007 2.911 1.665 4.68-.388 9.183-10.642 20.46-17.921 34.542-20.344 11.308-1.949 16.535 4.216 13.337 15.237-3.13 10.76-12.08 14.311-21.2 17.332-7.805 2.583-15.81 1.611-23.468-1.25-2.006-.753-2.833-.557-3.838 1.47-5.908 11.842-3.925 23.912 5.693 32.943 12.396 11.642 27.424 16.972 44.12 18.286 2.39.187 3.856-.036 4.053-3.19.539-8.602 5.286-14.877 12.2-19.61 6.935-4.75 13.885-9.555 22.872-9.478 9.23.073 13.397 6.033 10.345 14.8-1.513 4.353-4.752 7.247-8.23 9.889-8.091 6.16-17.239 10.167-27.2 11.98-3.55.652-2.978 1.957-2.033 4.239 3.002 7.27 8.28 12.595 14.663 16.834 20.108 13.353 41.985 17.415 65.704 12.664 18.582-3.728 35.616-10.898 51.343-21.343.795-.525 1.535-1.182 2.435-1.484 3.107-1.05 3.016 1.63-11.446 11.113"/><g transform="translate(0 116.967)"><mask id="b" fill="#fff"><use xlink:href="#a"/></mask><path fill="#36F2B9" d="M40.27 6.608c14.424-.31 23.188 8.219 23.288 22.183.092 13.713-7.146 20.864-21.36 21.124-13.105.238-23.947-8.013-23.344-19.262.822-15.534 6.662-23.721 21.415-24.045m83.761 82.006c-1.069-.247-7.465-15.676-12.432-20.933-3.655-3.879-5.812-1.615-8.16-1.716-22.988-.976-45.948 3.5-68.907 4.203-7.402.228-14.809.635-22.21.708-4.045.032-6.078-2.059-5.74-5.933 1.64-18.847 7.082-20.714 4.812-2.688-.425 3.363.379 3.893 3.92 3.564 9.39-.867 18.852-.903 28.283-1.355 17.714-.858 35.442-1.25 53.175-.707 4.5.132 8.988.661 13.479.734 2.764.041 3.696 1.935 4.807 3.774 2.979 4.929 4.409 10.752 8.695 14.923.068-24.114.123-48.218.228-72.322.019-3.993-1.704-5.572-5.807-5.723-11.025-.383-22.074-.84-33.058-1.857-15.772-1.474-31.559-2.068-47.363-2.277l-.84-.023c-.768-.028-1.532-.05-2.295-.073L31.241.808C29.884.762 28.522.716 27.16.675c-1.476-.05-2.957-.09-4.437-.141L18.31.397C16.967.356 15.624.31 14.285.269 13.193.237 12.1.201 11.009.17 10.287.14 9.565.119 8.848.096 7.363.05 5.69-.027 4.333.698c-1.16.625-1.782 1.807-2.152 3.021-.31 1.009-.484 2.054-.63 3.099-.21 1.579-.507 3.153-.576 4.737-.96 20.44.873 40.916-.946 61.333-.274 3.13 1.225 4.66 4.213 4.778 6.232.246 12.497.83 18.71.516 25.103-1.264 50.27.744 75.354-1.31 2.01-.164 3.085.543 4.167 2.245 4.61 7.238 10.14 13.777 16.006 20.039 1.124 1.204 2.102 2.592 3.97 1.88 1.714-.64 1.495-2.273 1.513-3.72.027-2.906.046-5.8.068-8.702" mask="url(#b)"/></g><path fill="#050505" stroke="#000" d="M105.406 455.595c2.244-.388 2.838 1.082 3.313 2.109 5.136 11.176 13.506 19.559 22.7 27.458 7.269 6.248 15.178 11.528 23.63 15.703 15.66 7.726 32.14 9.479 49.091 4.235 12.72-3.938 21.68-12.385 29.142-23.073 8.307-11.892 14.26-24.907 19.912-38.15 5.68-13.312 11.734-26.464 17.555-39.717 1.302-2.975 2.362-6.056 3.39-9.131.325-.977.763-1.821 1.261-2.702.919-1.63 2.267-2.24 3.852-1.702 1.97.67 1.179 2.624.813 3.728a186.347 186.347 0 0 1-5.176 13.832c-5.588 13.28-11.2 26.546-16.993 39.73-4.898 11.162-9.865 22.27-16.517 32.602-4.167 6.466-8.604 12.517-14.22 17.81-9.828 9.274-21.465 14.161-34.825 15.462-20.447 1.994-37.887-5.536-54.167-16.798a95.144 95.144 0 0 1-20.69-19.445c-5.094-6.48-9.375-13.659-12.07-21.95"/><path fill="#050505" d="M335.33 47.243c0-12.189-.004-23.954 0-35.714.005-6.457 1.024-7.415 7.448-7.913 15.64-1.2 31.303-1.551 46.984-2.053C408.92.956 428.07-.227 447.255.038c4.332.064 8.709-.273 13 .886 1.228.333 2.403.67 2.37 2.03-.031 1.73-1.562 1.922-2.878 1.944-2.175.037-4.354-.127-6.53-.146-30.676-.25-61.262 2.341-91.92 2.757-5.639.082-11.3.812-16.957.785-3.184-.01-4.148.862-4.226 4.376-.658 27.883.15 55.73 1.225 83.58.1 2.533 1.727 7.17-2.216 7.192-3.35.023-1.938-4.495-2.038-7.027-.69-16.53-2.349-33.026-1.755-49.172"/><path fill="#050505" d="M349.35 93.39c3.29-3.783 4.61-8.643 7.045-12.896 1.426-2.487 3.157-3.555 6.187-3.783 24.285-1.84 48.556-.712 72.809.429 7.53.36 15.119-.1 22.612 1.21 3.295.574 2.161-2.146 1.997-3.464-1.6-12.714-1.622-25.506-1.965-38.274a531.75 531.75 0 0 1-.192-18.31c.014-1.939-.192-4.672 2.527-4.786 2.732-.114 2.851 2.642 2.906 4.563.206 7.553.315 15.114.233 22.667-.119 11.637.48 23.242 1.224 34.842.389 6.12-.904 7.726-6.963 7.626-22.68-.379-45.33-2.113-68.03-1.693-8.873.169-17.737.484-26.6.497-2.093.005-2.756 1.086-3.505 2.52-2.966 5.653-6.342 11.043-10.486 15.93-1.07.197-2.303 1.027-3.13-.219-.713-1.058-.233-2.103.59-3.08 1.009-1.182 1.836-2.514 2.74-3.779M119.85 201.997c-2.413-2.921-3.697-6.6-6-9.607-3.632-4.736-5.2-5.635-10.43-5.86-22.988-.976-45.934-.095-68.885.603-7.406.228-14.813.644-22.22.708-4.034.036-6.072-2.054-5.734-5.928 1.64-18.848 1.252-37.736 1.462-56.615 0-.83.055-1.57.151-2.227.47-3.363 5.52-2.966 5.456.429v.064c-.439 18.569.073 37.174-2.262 55.665-.42 3.35.384 3.884 3.92 3.555 9.39-.867 18.857-.899 28.288-1.355 17.714-.849 35.442-1.25 53.18-.707 4.5.136 8.983.666 13.479.734 2.76.046 3.687 1.94 4.797 3.779 2.98 4.928 12.67 18.733 9.097 20.285-1.457.638-3.139-2.118-4.3-3.523"/><path fill="#050505" stroke="#000" d="M405.09 492.157c.406 1.04-1.12 1.73-1.65.744-4.025-7.47-7.018-14.977-9.677-22.603-14.452-41.441-27.493-83.302-37.508-126.057-.443-1.876-1.9-4.3 1.01-5.098 2.791-.762 3.12 1.976 3.641 3.838 6.406 22.831 12.661 45.708 19.168 68.512 7.735 27.066 14.69 54.374 25.011 80.641 0 .01.005.014.005.023"/><path fill="#050505" d="M268.087 170.364c-.096 4.057-2.572 6.886-5.062 9.693-.644.716-1.526.876-2.298.137-.869-.822-.864-1.94-.201-2.757 2.307-2.88 4.098-5.905 3.993-9.766-.023-.89.795-1.287 1.517-1.113 2.01.484 1.997 2.172 2.051 3.806"/><path fill="#FEFEFE" d="M271.702 105.419c16.046-9.602 34.09-8.383 44.146 9.287 1.129 1.985 2.102 4.116 2.728 6.297.402 1.397.804 3.359-1.339 4.044-2.124.67-2.878-1.06-3.385-2.506-.964-2.765-2.317-5.275-3.985-7.657-7.219-10.31-15.781-13.193-30-9.844-2.436.57-4.734.74-8.165.379M132.54 278.31c-.914.082-1.462-.283-1.855-.99-.452-.813.01-1.524.484-1.921.754-.626 1.727-1.004 2.618-1.456 7.1-3.587 13.877-7.717 20.653-11.865 1.572-.968 3.925-3.332 5.25-1.429 1.476 2.122-1.773 2.994-3.171 4.126-6.562 5.316-14.082 9.05-21.653 12.663-.777.37-1.618.603-2.326.872M226.305 202.495c-.644.854-1.042 1.442-1.503 1.98-2.687 3.095-6.438 4.053-10.194 4.948-1.256.296-2.298-.22-2.559-1.643-.233-1.287.457-1.693 1.668-1.908 3.258-.58 6.25-1.802 8.951-3.796 1.152-.85 2.509-.968 3.637.42M213.82 93.408c.859.023 1.782-.068 2.262.886.434.844-.242 1.45-.695 1.848-1.663 1.456-1.937 3.108-1.01 5.02.558 1.136.21 2.017-.808 2.546-1.202.634-1.938-.26-2.426-1.14-1.225-2.205-1.87-4.514-.736-6.978.658-1.447 1.768-2.246 3.413-2.182M245.019 127.933c.251 1.082-1.106 1.78-1.864.968-2.582-2.784-3.555-5.924-5.552-8.292-.42-.502-.15-1.465.667-1.784 1.211-.47 2.267-.17 3.089.862 1.85 2.318 2.897 4.92 3.66 8.246M249.508 125.981c.018 1.127-1.536 1.465-2.047.47-1.065-2.076-1.979-4.175-3.441-5.987-.557-.69-.987-1.657-.119-2.314.768-.584 1.887-.374 2.513.356 1.938 2.25 3.048 4.723 3.094 7.475M316.63 130.451c1.26.434 2.865.475 3.029 2.382.155 1.775-.905 2.825-2.403 2.93-1.71.128-2.947-.858-3.03-2.793-.073-1.652 1.097-2.131 2.404-2.519M167.04 259.107c-1.16-.05-2.257-.799-1.864-1.424 1.275-2.008 3.244-3.432 5.387-4.463.694-.333 1.476.538 1.348 1.228-.485 2.774-3.07 3.404-4.871 4.659M223.463 94.866c-.174 1.122-.919 1.812-1.979 1.907-1.22.11-1.919-.83-1.878-1.88.041-1.159.594-2.345 2.093-2.126 1.055.155 1.755.894 1.764 2.099"/><path fill="#050505" d="M372.28 30.496c-.347 3.345-.713 6.776-2.632 9.733-3.056 4.72-7.895 4.765-10.796-.045-3.034-5.015-3.633-10.656-3.25-16.365.092-1.4.426-3.587 2.6-3.381 2.048.191 1.403 2.135 1.563 3.495.498 4.313.768 8.68 2.71 12.678.365.748.717 1.757 1.74 1.715.983-.04 1.285-1.008 1.7-1.756 2.162-3.838 1.303-8.238 2.29-12.3.402-1.674.758-3.294 2.485-3.71 1.974-.474 3.244.877 4.13 2.506 1.102 2.04 2.034 4.18 3.268 6.138 2.06 3.281 3.075 3.163 5.016-.36.348-.64.599-1.328.97-1.95 2.183-3.682 4.23-4.093 7.159-.894 2.152 2.342 3.408 2.241 5.433-.127 2.96-3.464 5.18-3.259 8.187.191 3.825 4.386 6.15 4.381 9.696-.022 2.595-3.218 4.373-3.3 6.182.164 1.243 2.373 2.856 3.318 5.232 2.587 1.658-.506 3.623-1.2 4.304-2.961.43-1.1.055-2.278.173-3.414.11-1.127.44-2.318 1.088-3.258.75-1.086 2.115-1.707 3.422-1.474 1.503.278 2.326 1.67 2.54 3.094.234 1.515-.178 3.025-.228 4.536-.041 1.09.553 1.816 1.535 2.245 2.472 1.095 4.158-.191 5.89-1.606 1.375-1.127 2.997-2.437 4.519-.589 1.37 1.666.128 3.272-1.056 4.632-2.85 3.281-7.388 4.427-11.468 2.474-2.152-1.027-3.633-1.173-5.766.264-3.71 2.506-7.9 2.98-11.848.347-1.426-.95-2.225-.46-3.45.205-5.094 2.798-8.65 2.383-13.067-1.556-1.284-1.14-2.02-2.158-3.752-.392-2.695 2.738-5.825 2.975-8.973.47-.672-.53-1.102-1.547-2.38-.233-7.238 7.439-7.906 7.338-14.54-1.072-.055-.069-.265-.01-.626-.01M366.688 65.05c-3.312-1.433-6.753-7.99-6.054-11.286.233-1.104.745-1.898 1.901-2.058 1.106-.146 1.476.708 1.81 1.524.219.539.415 1.082.607 1.625.731 2.03 1.266 4.87 3.445 5.111 2.28.251 1.741-2.825 2.54-4.363 1.545-2.989 3.578-3.13 5.968-1.296 1.01.776 1.709 1.958 2.545 2.953 3.367 4.025 4.756 3.97 7.978-.292 2.412-3.19 4.043-3.354 6.406-.237 1.306 1.725 2.746 3.116 4.847 3.322 2.728.27 6.453 2.136 4.524-4.82-.709-2.555.21-4.919 2.636-6.484 1.7-1.095 3.199-.42 4.355.67 1.992 1.872 2.96 4.227 2.18 7.051-.325 1.182-.567 2.392-.883 3.756-.214 2.807 4.304-1.68 5.862-3.363 1.769-1.898 3.83-2.615 5.314.027 1.536 2.73 3.048 1.725 4.962.712 4.597-2.45 8.147-2.021 12.035 1.205 1.106.917 1.833 2.008 1.193 3.382-.608 1.31-2.239 1.305-3.048.844-4.162-2.355-7.776.123-11.697.538-4.646.493-9.521 1.126-13.894 1.31-4.014.169-3.82-1.982-5.33-1.848-2.995.265-1.049 2.707-8.09 2.268-5.42-.338-8.768-3.583-14.036-.005-3.313 2.255-6.854-1.638-9.668-4.367-1.988 3.318-4.195 5.95-8.408 4.12zM449.214 62.85c-.246 1.807-1.293 2.87-3.134 2.925-1.517.036-2.604-.799-2.403-2.373.21-1.68 1.174-2.99 3.088-3.053 1.627-.055 2.244 1.031 2.45 2.5M40.47 127.505c-9.234-.05-14.063 4.08-16.95 14.193-1.77 6.206-.883 11.682 3.773 16.35 1.714 1.721 3.221 2.565 3.943-.77.658-3.063 2.308-5.627 4.437-7.813 1.224-1.26 1.398-1.999.352-3.573-2.184-3.3-1.755-6.69 1.137-9.415 2.363-2.222 5.323-2.683 7.923-.607 3.199 2.556 3.153 5.937 1.307 9.355-.553 1.023-1.238 1.698.114 2.848 2.628 2.236 2.733 5.595 3.212 8.73.192 1.246-.383 2.911.946 3.578 1.513.757 2.605-.776 3.779-1.483 1.26-.763 2.102-1.963 2.782-3.272 6.909-13.349-1.84-28.034-16.755-28.12m1.728 39.378c-13.105.237-23.952-8.018-23.349-19.263.832-15.534 6.667-23.725 21.42-24.045 14.42-.315 23.193 8.214 23.29 22.183.09 13.714-7.147 20.865-21.361 21.125M77.251 142.26c3.628-5.042 4.327-5.201 8.549-1.414 1.745 1.566 3.262 1.785 4.875.114 2.138-2.218 4.377-2.688 6.927-.72 1.626 1.25 3.29 1.09 4.784-.151 2.293-1.908 4.555-1.652 7.301-.845 2.417.708 5.163.315 7.768.397 1.21.037 2.558.242 2.823 1.506.32 1.525-1.21 1.803-2.266 2.063-3.19.785-6.31 2.355-9.741 1.077-1.175-.433-2.193-.146-3.254.589-2.709 1.89-5.715 2.231-8.672.78-1.663-.821-2.677-.123-3.934.671-2.727 1.725-5.61 1.784-8.137-.2-1.828-1.443-2.856-1.128-4.218.524-1.316 1.602-3.22 2.286-4.985.758-1.95-1.703-3.294-4.477-2.083-6.554 2.052-3.514 2.91.192 4.263 1.406M95.121 163.002a6.192 6.192 0 0 1-3.591-.293c-3.824-1.542-7.864-.296-12.008.407-3.207.552-5.437-1.575-6.214-4.806-.233-.958-.37-2.167.676-2.733.928-.502 2.066-.411 2.669.657 1.494 2.624 3.477 1.93 5.61 1.018 2.756-1.182 5.58-1.63 8.371-.1 1.823 1.003 3.665.291 5.52.268 1.718-.018 3.806.156 4.18 2.268.384 2.15-1.713 2.323-3.157 2.793-.648.21-1.32.365-2.056.52M222.646 141.561c2.43-.004 7.717 4.906 7.795 7.078.028.794-.279 1.342-.987 1.757-.923.543-1.732.27-2.33-.397-1.645-1.839-3.454-3.45-5.556-4.764-1.019-.639-1.014-1.734-.54-2.706.316-.657.96-1.073 1.618-.968M218.041 158.251c.284-2.076.348-4.294 2.98-4.564 1.69-.173 2.357 1.497 2.097 2.588-.412 1.743-.274 4.198-3.075 4.436-2.024.173-1.819-1.315-2.002-2.46"/><path fill="#36F2B9" d="M40.47 127.505c14.914.087 23.664 14.772 16.755 28.12-.68 1.31-1.521 2.51-2.782 3.273-1.174.707-2.266 2.24-3.779 1.483-1.33-.667-.754-2.332-.946-3.578-.48-3.135-.584-6.494-3.212-8.73-1.352-1.15-.667-1.825-.114-2.848 1.846-3.418 1.892-6.8-1.307-9.355-2.6-2.076-5.56-1.615-7.923.607-2.892 2.725-3.321 6.115-1.137 9.415 1.046 1.574.872 2.313-.352 3.573-2.13 2.186-3.779 4.75-4.437 7.813-.722 3.335-2.23 2.491-3.943.77-4.656-4.668-5.542-10.144-3.774-16.35 2.888-10.113 7.717-14.243 16.951-14.193"/></g></svg>