<svg xmlns="http://www.w3.org/2000/svg" width="430" height="443"><g fill="none" fill-rule="evenodd"><path fill="#050505" stroke="#000" d="M100.623 77.148c-1.029-.294-6.693.264-7.637.427-2.138.366-5.292-.042-6.432 1.916-.97 1.664-.251 4.313-.264 6.529a82.973 82.973 0 0 1-6.175 31.033c-.93 2.285-.904 2.774 1.796 3.055 7.017.727 13.984.42 20.971-.079 1.14-.081 3.608-.375 4.277.17 1.933 3.804-6.556 3.481-9.88 3.984-6.556.992-11.267.15-19.472-.79-2.67-.306-3.604-1.171-1.867-4.274 1.802-3.214 2.027-7.254 3.046-10.915 2.582-9.257 3.506-18.781 3.363-28.397-.036-2.467 1.067-3.915 3.536-4.317 3.493-.567 6.98-1.161 10.467-1.749.072 1.436 5.221 2.15 4.271 3.407"/><path fill="#050505" stroke="#000" d="M90.447 106.801c-.183.401.085.855.529.852 5.28-.004 10.614-.036 15.946.032 1.195.013 1.593-.512 1.698-1.497.535-4.954 2.51-9.636 2.596-14.693.045-2.536-.79-2.196-5.104-1.407-3.696.676-7.48.552-11.218.157-2.011-.212-1.878.812-1.962 2.042-.35 5.065-.506 10.174-2.485 14.514m9.331 4.196c-3.65-.258-8.061 1.06-12.015-.682-1.47-.646-2.024-1.749-1.75-2.63 1.747-5.619 2.165-12.122 3.719-17.76.405-1.465.986-2.33 2.971-2.568 6.308-.75 12.688.023 18.96-1.09 1.427-.254 1.969.438 2.285 1.974.911 4.454.138 8.696-.875 12.993-2.785 11.851-1.123 9.42-13.295 9.763"/><path fill="#050505" stroke="#000" d="M107.268 71.712c3.376-.447 6.68-1.331 10.134-1.273 1.734.03 2.74.764 3.19 2.29.522 1.773 1.175 3.57 1.303 5.388 1.018 14.55-.366 28.86-4.637 42.839-.342 1.12-.519 2.845-2.145 2.822-2.223-.032-2.974-1.328-2.347-3.537 3.552-12.513 5.619-25.225 5.13-38.29-.278-7.495-1.166-8.31-8.193-6.637-1.077.261-2.125.31-3.186.454.303-1.341-.62-2.91.75-4.056M105.605 103.551c-.913 1.595-2.538-1.415-3.278-2.425-1.077-1.475-1.981-1.975-3.468-.593-.91.85-5.01 4.082-3.547.736.529-.718.947-1.459 1.516-2.033 1.244-1.257 2.821-2.357.566-4.182-.319-.262-.405-1.003.093-1.39.518-.405 1.287-.359 1.584.074 1.249 1.826 2.436 1.252 3.83.229.709-.518 1.691-1.634 2.516-.424.91 1.331-.325 2.162-1.18 2.644-1.712.962-1.536 2.054-.527 3.395.818 1.09 1.35 2.339 1.895 3.97"/><path fill="#36F2B9" stroke="#36F2B9" d="M95.521 79.117c-.003-3.38.121-9.74 1.029-13.022a1.836 1.836 0 0 1 1.303-1.29l8.812-2.384c1.276-.346 2.494.71 2.311 2.02-.506 3.664-1.665 7.018-1.322 12.98.052.874-.617 1.621-1.476 1.79l-8.446 1.704a1.841 1.841 0 0 1-2.21-1.798"/><g><path fill="#050505" stroke="#000" d="M21.772 40.56c-3.252.535-6.5 1.093-9.76 1.598-3.372.526-4.342 2.666-4.3 5.808.112 7.848-.114 15.715-2.18 23.32-1.362 5.016-2.185 10.207-4.255 15.017-.966 2.241-.088 3.38 2.054 3.775 7.487 1.38 14.996 2.15 22.555.496 2.419-.529 10.248-.682 6.677-3.645-6.501-.682-12.518.933-18.562.385-1.433-.13-2.854-.134-4.3-.401-4.747-.878-4.822-.82-3.154-5.453 2.295-6.375 4.646-12.813 4.953-19.594.206-4.62.914-9.296.118-13.949-.294-1.7.143-2.199 2.083-2.166 2.419.042 8.743-.483 11.17-.894.969-1.217-3.168-2.901-3.1-4.297M33.1 42.608c2.962-.424 5.985-.45 8.862-1.429 1.254-.427 1.71.065 1.86 1.423.997 8.99.683 17.92-.522 26.873-.777 5.756-1.975 11.391-3.411 17.003-.307 1.198-1.081 3.107 1.27 3.847 2.429.76 2.749-1.484 3.013-2.49 1.381-5.207 2.668-10.477 3.47-15.795 1.431-9.443 1.219-18.961.706-28.479-.284-5.322-1.613-6.741-6.83-6.288-2.6.226-5.172.78-7.755 1.188-1.332 1.204-.561 2.744-.662 4.147"/><path fill="#050505" stroke="#000" d="M20.166 67.07c.258-.045.513-.1.755-.179 1.488-.45 2.638-1.452 4.293-1.308 1.995.176 3.569 1.266 5.43-.085 1.156-.835 1.972.414 2.804 1.07 1.548 1.227 3.39 2.007 5.025.676 1.669-1.36 2.547-3.4 2.384-5.688-.072-1.005-.102-2.16-1.483-2.195-1.038-.033-1.361.747-1.668 1.696-.558 1.733-.98 4.284-3.246.884-1.11-1.667-2.98-1.455-4.623-.368-1.427.943-2.759 1.582-4.574.594-.983-.539-2.318-.304-3.451.456-1.45.976-3.187 1.048-4.764.487-1.622-.578-3.19-.438-3.578 1.122-.8 3.201 4.819 3.165 6.696 2.839M22.888 77.915c3.19.176 6.386.123 9.58.202 2.406.062 4.22-.418 4.351-3.23.089-1.965-.463-2.02-2.285-1.619-2.759.607-5.45.101-8.218.046-2.958-.065-5.94-.036-8.9-.003-1.16.013-2.25.313-2.413 1.752-.216 1.944 3.62 2.62 7.885 2.852"/><path fill="#36F2B9" stroke="#36F2B9" d="M35.229 46.47c-.69-3.308-2.11-9.508-3.67-12.536a1.842 1.842 0 0 0-1.538-.992l-9.116-.538c-1.319-.075-2.295 1.207-1.851 2.45 1.247 3.485 3.066 6.53 3.95 12.439.128.867.934 1.458 1.813 1.452l8.616-.06a1.841 1.841 0 0 0 1.796-2.215"/></g><g><path fill="#050505" stroke="#000" d="M315.952 244.18c.087-.082.177-.225.234-.212.155.035.298.134.445.212-.073.073-.164.22-.22.207-.156-.034-.299-.13-.459-.207m65.727-62.738c.1-.649.662-1.28 1.649-1.35 1.077-.081 1.216.736 1.181 1.548-.039.913-.23 1.85-1.372 1.894-1.103.039-1.488-.726-1.458-2.092m-69.136-61.636c.12-1.232.493-2.37 2.033-2.56 1.333-.164 1.904.761 1.921 1.816.022 1.319-.688 2.412-2.107 2.628-1.268.2-1.787-.622-1.847-1.884m10.786 91.541c.004-3.562 1.908-6.709 3.86-6.575 2.38.165 2.99 1.946 2.972 4.077-.026 3.277-1.64 5.844-3.846 5.823-2.631-.022-2.938-1.924-2.986-3.325m4.383-99.612c4.258.367 8.26.25 11.847 2.836 1.748 1.262 3.37 2.589 4.391 4.565.398.77.727 1.539.065 2.144-.575.527-1.242.017-1.791-.39-.545-.397-1.12-.756-1.662-1.158-5.854-4.344-12.04-7.02-19.422-4.007-.922.376-1.856.173-2.32-.783-.545-1.124.048-1.954.996-2.541 2.38-1.483 5.205-.044 7.896-.666m43.376 33.195c4.456.06 7.87 1.907 10.457 4.885 5.651 6.485 7.165 14.274 5.993 22.596-.225 1.608-.087 4.747-2.67 4.185-2.462-.532-1.043-3.16-.705-4.86 1.757-8.853-2.254-18.475-9.791-23.416-1.156-.757-2.774-1.073-3.284-3.39m14.646 151.034c-1.407 0-1.861.004-2.31-.004-1.472-.044-3.233.108-3.216-2.002.013-1.798 1.675-1.837 2.986-2.002 1-.134 2.029-.051 3.037-.134 6.07-.536 11.69-2.351 16.411-6.294 12.44-10.37 16.948-23.326 12.591-39.144-1.31-4.763-3.041-9.341-5.123-13.811-.415-.89-1.34-2.097-.385-2.737 1.26-.851 1.835.748 2.566 1.492.476.48.948.998 1.263 1.586 7.196 13.35 10.376 27.127 3.038 41.431-6.598 12.87-16.78 20.923-30.858 21.619m-55.383-122.45c2.886 3.22 5.573 4.236 8.325 7.564 1.112 1.35 2.267 4.764-.03 3.753-.783-.346-1.649-.117-2.942-1.301-2.566-2.352-3.869-6.005-7.49-7.267-1.03 4.02-2.025 8.045-3.107 12.052-.315 1.159-.67 2.317.71 2.875 1.35.544 2.246-.368 2.496-1.557.667-3.181 1.731-5.559 5.75-4.348 3.19.96 5.786 4.729 5.387 8.442-.363 3.39-1.6 6.52-5.014 7.833-3.548 1.358-6.624.195-8.96-2.823-1.62-2.087-2.688-2.01-3.653.636-4.954 13.626-7.732 27.515-5.469 42.07.113.735.502 1.63-.363 2.132-.762.45-1.164-.39-1.666-.744-13.43-9.368-28.34-9.484-42.735-.285-14.08 9-24.606 21.26-32.792 35.685-8.606 15.178-14.34 31.614-21.037 47.634-3.336 7.976-6.226 16.15-10.514 23.716-4.75 8.39-12.47 13.431-20.37 18.29-.472.294-1.004.493-1.454.808-.606.42-1.622.614-1.389 1.656.251 1.098 1.246.713 1.965.752 4.495.281 7.926-2.265 11.388-4.509 8.748-5.654 13.94-14.131 18.263-23.326 5.136-10.924 9.086-22.323 13.698-33.455 5.984-14.46 11.907-29.05 21.565-41.53 8.649-11.175 18.566-21.295 32.42-25.963 11.189-3.77 21.923-2.668 30.37 6.506 5.217 5.671 7.657 12.925 8.93 20.43 4.205 24.688 12.854 47.984 22.057 71.116 8.995 22.608 18.808 44.854 29.379 66.767 3.682 7.63 8.272 14.706 12.872 21.783.882 1.366 2.003 2.689 3.362 1.811 1.57-1.016.995-2.91.112-4.396-5.954-10.047-11.57-20.253-16.377-30.93-5.39-11.98-10.912-23.902-16.034-36.006-4.41-10.405-8.446-20.953-12.665-31.427-4.024-9.982-7.407-20.158-10.704-30.386-2.025-6.29-3.449-12.718-5.188-19.073-.268-.985-.316-2.243.472-2.77.986-.666 1.505.648 2.046 1.24 4.535 4.971 9.467 9.614 14.789 13.613 16.35 12.298 39.529 19.57 58.19 7.57 4.664-2.997 8.377-7.198 12.029-11.284 3.971-4.456 7.597-9.372 9.817-14.948 1.333-3.346 2.129-6.904 2.202-10.513.06-2.767-.242-5.538-.545-8.296-.35-3.169-.697-6.346-1.475-9.441-1.619-6.428-5.054-12.29-9.22-17.452-6.616-8.205-15.477-14.265-21.202-23.214-3.907-6.112-5.802-11.896-4.971-19.176 1.307-11.482 4.539-23.05-1.696-33.797-2.838-4.893-7.693-8.24-12.526-10.95-3.959-2.222-8.273-2.1-12.595-2.018-2.267.039-3.05-.644-3.496 3.423-.52 4.743-3.288 14.633-4.764 13.7-1.367-2.577-.13-4.725.19-6.753 1.467-9.207.096-18.567-4.452-26.75-3.967-7.146-9.943-14.724-18.445-16.319-8.766-1.642-18.972 2.438-24.935 8.87-8.519 9.187-2.068 24.369 3.912 33.088 1.527 2.43 1.787 2.611 12.037 11.815 5.884 5.282 5.542 15.376 5.542 15.376"/><path fill="#050505" stroke="#000" d="M228.941 106.306c.052.121-.044.26-.174.234-5.49-1.067-10.497.83-13.66 6.269-3.084 5.3-4.042 11.168-4.772 17.117-.805 6.563-2.11 13.022-4.468 19.235-.252.66-.379 1.563-1.662 1.883-1.627-8.9-3.489-17.696-4.964-26.596-.87-5.245-1.71-10.52-2.436-15.778-.491-3.552-.948-7.168-.905-10.866.065-5.353-.396-10.702.735-16.007.205-.964-.443-1.504-1.274-1.66-.9-.168-1.566.018-2.18 1.038-1.14 1.888-.757 4.035-.97 5.918-.378 3.271-.648 6.55-.344 9.83.818 8.83 1.636 17.683 3.376 26.419.374 1.896-5.168 10.187-5.999 11.946-4.468 9.453-7.282 11.254-10.297 21.429-2.288 7.742-2.262 15.454-1.431 23.404.74 7.063 1.622 14.075 2.784 21.088 2.25 13.54 7.43 26.026 13.216 38.339 7.492 15.92 17.515 30.187 28.882 43.576.365.427.757.842 1.183 1.21.366.315.657 1.066 1.332.397.609-.614-.018-1.007-.305-1.413-3.132-4.433-6.438-8.758-9.392-13.298-8.497-13.052-16.097-26.545-22.07-40.997-4.298-10.412-7.791-20.954-9.74-32.005-1.027-5.833-1.7-11.726-2.523-17.593 0 0 2.802-.7 7.709-4.39 13.481-9.254 21.408-21.917 23.83-38.106.988-6.601 1.432-13.389 4.055-19.644 2.071-4.93 4.62-8.74 9.828-8.205 2.71.277 4.254 1.05 5.26 3.642 3.493 9.056 7.12 18.06 10.827 27.029 7.757 18.78 16.575 37.017 28.495 53.612 1.087 1.516 2.205 3.002 3.563 4.847 1.105-2.234.356-3.724-.588-5.189-6.308-9.772-11.458-20.193-16.396-30.662-6.917-14.676-12.816-29.798-18.902-44.833-4.05-10.01-7.761-20.137-11.707-30.186-2.149-5.474-3.545-11.242-5.285-16.876-.196-.635-.179-.855.56-1.426 4.9-3.793 6.03-10.044 2.998-15.035-.666-1.093-1.74-1.114-2.693-.89-.966.234-1.379 1.141-1.161 2.156.16.748.43 1.474.66 2.212 1.402 4.528 1.206 6.274-3.197 8.494-2.575 1.296 3.559 21.849 6.391 30.17a457.257 457.257 0 0 0 1.849 5.353c.283.799.6 1.568.922 2.354.266.635 1.04 1.78 1.04 2.454M151.137 283.21c-9.361-2.21-15.706.647-22.217 9.734-3.194 4.463-7.319 8.366-9.653 13.328-.33.703-1.043 2.344-1.812 1.098-.482-.781-.57-2.17-.734-3.069-1.035-5.765-1.413-11.783-1.474-17.64-.056-5.782.217-11.56.374-17.339l.052-2.253c.017-.786.017-1.615-.378-2.292-.396-.677-1.347-1.094-1.995-.656-.4.27-.574.764-.69 1.233-.866 3.378-.327 7.007-1.279 10.363-1.304 4.593-5.141 7.932-8.549 11.275-8.718 8.548-15.802 19.063-18.77 30.893-.8 3.191-1.3 6.504-.83 9.756.464 3.251 1.994 6.45 4.632 8.409 4.455 3.308 10.9 2.327 15.72-.426 8.254-4.71 13.26-13.428 17.676-21.507 2.473-4.528 4.846-9.117 7.662-13.45a82.81 82.81 0 0 1 1.565-2.31c2.416-3.407 5.193-6.438 8.249-9.212 3.438-3.126 7.545-2.5 11.56-1.493 2.374.594 3.095 2.7 3.72 4.775 5.803 19.272 15.682 36.577 25.938 53.7.4.668.896 1.293 1.404 1.888.617.712 1.526 1.385 2.304.699.66-.582.37-1.628-.07-2.492-5.159-10.072-10.56-20.023-15.359-30.256-5.824-12.412-10.266-25.336-13.643-38.669-2.186-8.648-4.454-17.265-6.31-25.992-.152-.703-.017-2.661-1.79-2.249-1.383.322-1.318 1.685-1.27 2.805.27 6.716 1.378 13.324 2.943 19.849.9 3.747 1.955 7.454 3.024 11.5"/><path fill="#050505" stroke="#000" d="M202.295 440.298c22.952-5.177 40.796-18.223 55.418-36.168 9.09-11.149 17.606-22.788 24.253-35.53 6.613-12.668 12.727-25.596 16.942-39.427 2.312-7.595 3.21-15.298 4.753-22.949-.182-.538-.213-1.041.295-1.44.126-1.329.247-2.66.377-3.993.004-1.849.013-3.698.017-5.55-.156-1.038-.49-2.349-1.535-2.331-1.001.013-1.192 1.315-1.27 2.335-1.795 22.792-9.107 43.914-19.436 64.116-7.15 13.978-15.814 26.993-25.68 39.175-6.088 7.517-12.362 14.985-20.259 20.697-14.318 10.359-29.591 18.465-47.96 18.123-8.035-.148-15.28-3.164-22.34-6.71-8.46-4.244-16.058-9.803-22.246-16.842-8.117-9.227-15.199-19.326-21.582-29.854-5.902-9.738-12.77-18.878-17.766-29.168-.347-.711-.98-1.276-2.172-.816 1.097 3.967 3.105 7.586 4.904 11.262 7.983 16.326 17.215 31.898 28.52 46.171 9.83 12.412 22.094 21.73 36.82 27.45 7.81 3.033 16.144 3.48 24.496 2.347 1.34-.182 2.689-.33 4.033-.494.39-.43.858-.573 1.418-.404M304.447 142c-2.55.354-3.365 2.21-4.467 3.688-4.374 5.857-8.622 11.814-13.09 17.603-2.746 3.562-6.48 6.052-10.15 8.581-3.08 2.127-3.806 5.162-.922 7.457 4.279 3.407 2.583 6.597 1.214 10.445-2.446 6.895-3.193 14.058-2.321 21.394.425 3.589 2.176 5.975 5.351 7.393 1.447.64 1.906 1.297 1.683 3.164-.417 3.472-1.597 6.658-2.537 9.943-.249.865-.768 1.829.447 2.244 1.175.398 1.403-.631 1.768-1.479 1.291-2.995 2.648-5.987 3.193-9.208.3-1.785.9-2.243 2.6-1.802 4.682 1.219 9.343.224 13.995-.32.734-.087 1.76-.165 1.713-1.206-.048-1.012-1.133-1.047-1.816-1.129-3.66-.428-7.39.087-11.016-.869-.322-.086-.683-.026-1-.125-8.515-2.594-10.93-3.316-10.948-13.103-.013-7.258 1.66-14.063 4.008-20.716.876-2.499.022-3.51-1.497-4.773-3.73-3.1-3.7-3.298.257-6.147 8.377-6.04 14.102-14.361 19.342-23.059 1.485-2.46 6.377-7.976 4.193-7.976"/><path fill="#36F2B9" stroke="#36F2B9" d="M306.29 178.69c-5.898.06-9.658-4.983-7.42-10.569 2.747-6.837 7.283-12.163 14.579-14.509 4.695-1.512 8.857 1.212 9.465 6.164 1.034 8.375-8.154 18.832-16.623 18.914m33.922 7.159c1.954-1.577-.21-3.506-1.32-4.861-2.742-3.345-14.074-13.949-13.582-14.552.16-.226.556-1.412.824-2.298.862-2.867.746-6.026-.54-8.723-1.608-3.367-4.544-5.56-9.09-6.36-1.715-.308-5.087.73-7.455 1.803-6.623 2.993-10.93 8.484-13.669 15.1-2.216 5.352-2.488 11.064 4.718 15.351 2.815 2.36 10.012 2.298 14.061-.143 3.135-1.885 5.735-4.387 7.538-7.567 1.776-2.085 1.759-3.063 4.118-.478.9.99 12.276 14.444 14.397 12.728"/><path fill="#050505" stroke="#000" d="M151.755 221.043c.307 3.781-.604 9.214-2.034 12.49-1.574 3.636-3.705 6.78-5.32 10.4-.348.777-.755 1.508.14 1.965.783.397 1.313-.461 1.652-.94 4.8-6.755 8.807-13.228 8.807-22.25 0-3.443-3.553-5.446-3.245-1.665z"/><path fill="#36F2B9" stroke="#36F2B9" d="M195.152 31.144c1.389 3.464 2.943 6.865 4.449 10.255.992 2.241 2.442 2.34 4.145.884 2.988-2.554 4.014-6.125 4.704-8.072.271-.762 1.072-1.16 1.849-.955 1.554.41 3.322.58 4.687-.273 3.817-2.385 1.8-8.448-1.042-11.272-1.315-1.308-3.465-1.574-5.046-.602-1.862 1.143-3.039 3.01-3.231 5.002-.086.85-.834 1.468-1.676 1.361-2.383-.304-5.33-.968-6.883-.45-2.698.909-2.709 2.264-1.956 4.122"/><path fill="#050505" d="M225.415 28.865c2.831 5.44 2.657 5.18-2.146 8.652-4.885 3.533-6.233 4.93-10.97 8.656-3.843 3.023-1.69 5.076 3.005 2.712 5.877-2.96 11.128-7.35 16.654-11.077 1.362-.925 1.562-2.035 1.027-3.237-1.814-4.072-5.155-11.321-7.056-15.356-1.269.838-2.704 1.461-3.513 2.858.533 1.187 2.402 5.641 2.999 6.792zM192.868 12.27c-3.842 3.05-7.341 6.512-11.01 9.768-2.773 2.46-.458 5.342 2.398 3.091 8.902-7.005 17.906-13.907 26.635-21.126.888-.734 2.363-1.53 1.09-3.141-1.284-1.625-2.787-1.56-19.113 11.408M219.097 13.323c1.13-1.041 2.862-1.331 3.556-2.9-.747-2.215-1.393-4.47-2.296-6.62-.441-1.04-1.416-2.188-2.693-1.75-1.256.434-1.195 1.793-1.016 3 .43 2.875 1.377 5.589 2.449 8.27"/><path fill="#36F2B9" stroke="#36F2B9" d="M221.403 25.722c3.096-1.807 8.852-5.335 11.37-7.922a1.95 1.95 0 0 0 .477-1.883l-2.537-9.353c-.367-1.352-1.99-1.904-3.092-1.035-3.081 2.432-5.532 5.291-11.175 8.172-.83.42-1.15 1.433-.852 2.314l2.977 8.645a1.954 1.954 0 0 0 2.832 1.062"/><path fill="#050505" stroke="#000" d="M174.01 39.164c.256 3.372 1.478 6.515 2.87 9.518 4.168 9.025 9.315 17.495 15.122 25.57.857 1.192 2.184 2.293 3.376 1.452 1.096-.775.557-2.401-.191-3.628-3.015-4.963-5.978-9.956-9.001-14.915-3.576-5.873-6.63-11.99-8.844-18.513-.327-.958.252-2.818-1.684-2.636-1.932.183-1.636 1.8-1.649 3.152M184 31.883c.153 7.056 2.781 13.239 5.3 19.387 2.202 5.37 4.805 10.598 8.388 15.279.937 1.228 1.792 3.235 3.548 2.13 1.435-.902.554-2.67-.252-4.081-5.401-9.439-10.497-19.006-13.026-29.672-.235-.984-.527-1.879-.357-2.906.222-1.352-.11-2.853-1.578-3.003-2.206-.231-1.56 1.98-2.023 2.866M192.07 27.937c.95 5.731 2.673 11.279 4.849 16.626 2.054 5.028 4.053 10.117 6.874 14.792.404.672.79 1.357 1.255 1.977.851 1.148 2.085 2.23 3.362 1.34 1.199-.834.292-2.305-.276-3.33-4.634-8.402-8.116-17.285-10.725-26.525-.503-1.776-1.161-3.54-1.363-5.351-.18-1.633-.993-2.628-2.347-2.444-1.251.174-1.926 1.436-1.63 2.915M128.013 196.671c1.03 6.337 3.401 13.225 6.307 19.926 1.559 3.596 3.291 7.128 5.527 10.36.81 1.178 2.008 2.71 3.44 1.73 1.614-1.109.08-2.295-.61-3.532-2.55-4.551-4.719-9.308-6.548-14.201a115.791 115.791 0 0 1-2.516-7.488c-.686-2.278-1.86-5.01-1.75-7.42.022-.454.119-.89.144-1.344.08-1.49-.177-2.693-2.024-2.702-1.91-.013-2.038 1.272-1.97 2.719.013.33 0 .663 0 1.952M110.081 207.622c.38 2.851 1.98 6.493 2.392 7.374a171.869 171.869 0 0 0 9.219 17.088c.408.656.791 1.516 1.404 1.823.975.492 2.026 1.784 3.23.622 1.21-1.167.58-2.23-.242-3.508-4.962-7.732-9.716-15.589-12.734-24.383-.345-1.003-.11-2.946-1.89-2.596-1.366.263-1.621 1.762-1.379 3.58M118.063 200.442c.712 7.895 4.836 15.326 7.953 22.424.946 2.159 1.927 4.37 3.539 6.065.712.744 1.816 1.406 2.699.88.601-.363.827-1.178.72-1.887-.102-.705-.473-1.34-.822-1.958-2.21-3.892-4.021-8-5.83-12.107-2.042-4.629-4.106-9.319-4.98-14.324-.094-.543-.179-1.094-.426-1.58-.248-.49-.691-.902-1.224-.95-.635-.058-1.22.446-1.471 1.046-.252.604-.243 1.283-.192 1.935.008.154.021.307.034.456M103.115 217.344c.781 4.687 5.281 12.774 5.846 13.807 1.597 2.925 3.34 5.772 5.312 8.46.397.54.733 1.138 1.192 1.621.811.853 2.007.971 2.863.475 1.12-.66.622-1.757.066-2.675-2.47-4.095-5.012-8.145-7.386-12.287-1.83-3.203-3.587-6.458-4.407-10.126-.26-1.168-.772-2.759-2.184-2.61-1.337.141-1.61 1.472-1.302 3.335"/><path fill="#050505" d="M293.567 245c-5.524.168-10.497 1.463-14.853 4.437-.901.61-2.362 1.401-1.397 2.81.87 1.263 2.224.68 3.232.103 5.313-3.032 11.191-3.61 17.19-3.814.797-.029 2.12.704 2.253-1.012.112-1.442-1.004-1.864-1.986-2.082-1.509-.335-3.099-.323-4.439-.442M292.062 200c2.037-.192 4.027-.26 5.817-1.22.838-.447 1.331-1.04 1.034-2.015-.32-1.04-1.174-1.227-2.088-1.023-3.87.847-7.638.555-11.385-.616-.85-.268-1.773-.156-2.245.804-.54 1.103.127 1.77.974 2.323 2.398 1.571 5.247 1.355 7.893 1.747M312.173 188c-1.284.024-1.94.648-2.056 1.846-.112 1.161.232 2.072 1.556 2.148 1.312.076 2.176-.573 2.228-1.933.044-1.178-.588-1.89-1.728-2.061M310.123 199.888c1.156-.212 1.784-.92 1.664-2.128-.104-1.044-.748-1.728-1.832-1.64-1.208.092-1.856.952-1.744 2.084.1.964.764 1.66 1.912 1.684M304.85 193.651c1.352-.044 1.796-.616 1.776-1.616-.024-1.144-.604-1.756-1.752-1.68-.956.06-1.524.608-1.5 1.616.028 1.152.7 1.648 1.476 1.68"/><path fill="#FFF" stroke="#FFF" d="M385.586 295.997c14.233-.688 24.525-8.696 31.195-21.498 7.418-14.224 4.204-27.92-3.07-41.198-.32-.585-.797-1.101-1.278-1.574-.739-.74-1.32-2.33-2.593-1.487-.967.64-.031 1.84.389 2.725 2.104 4.44 3.853 8.997 5.179 13.73 4.404 15.73-.153 28.617-12.729 38.93-4.772 3.916-10.454 5.725-16.59 6.254-1.02.086-2.06.004-3.07.133-1.326.164-3.006.202-3.019 1.99-.017 2.098 1.763 1.948 3.25 1.99.455.014.914.005 2.336.005"/><path d="M371 144c.52 2.337 2.155 2.655 3.318 3.418 7.616 4.983 11.673 14.687 9.894 23.615-.341 1.713-1.77 4.364.712 4.9 2.615.567 2.47-2.598 2.702-4.22 1.185-8.392-.345-16.248-6.06-22.787-2.614-3.003-6.063-4.865-10.566-4.926M334.242 111.243c-3.57-1.357-7.48-1.52-11.24-.887-1.319.226-2.606.559-3.788 1.308-.956.603-1.554 1.454-1.004 2.606.467.98 1.41 1.188 2.339.803 7.444-3.09 13.688-.346 19.592 4.109.545.412 1.121.78 1.671 1.192.554.412 1.226.936 1.807.395.667-.62.336-1.41-.066-2.199-1.03-2.026-2.666-3.387-4.429-4.681a20.52 20.52 0 0 0-4.882-2.646"/><path fill="#36F2B9" stroke="#36F2B9" d="M323 210.643c.049 1.415.364 3.335 3.059 3.357 2.26.017 3.914-2.571 3.94-5.88.018-2.151-.607-3.95-3.045-4.116-2-.14-3.95 3.043-3.954 6.64"/><path d="M312.172 119.872c.056 1.404.536 2.313 1.708 2.096 1.312-.24 1.968-1.457 1.948-2.928-.016-1.168-.544-2.202-1.776-2.019-1.424.212-1.768 1.48-1.88 2.851"/><path fill="#050505" d="M317.992 163.716a9.603 9.603 0 0 0-.337-2.18c-.364-1.312-1.307-2.947-3.1-2.442-.765.212-.765.663-.574 1.258.271.84.341 1.754.35 2.633.015 1.632-.322 3.263-.905 4.805-.43 1.147-.934 2.515.696 3.089 1.988.7 2.824-1.806 3.258-3.089.443-1.313.668-2.697.612-4.074M305.955 168.938a9.015 9.015 0 0 0 2.276-.623c.975-.44 1.63-1.193 1.756-2.243.152-1.303-1.093-2.308-2.698-2.023-1.976.346-4.096.81-4.281 3.191-.131 1.657 1.427 1.905 2.947 1.698"/><path d="M381.134 180.998a1.867 1.867 0 1 0 3.733.003 1.867 1.867 0 0 0-3.733-.003"/><path fill="#FFF" stroke="#FFF" d="M372.134 293.002c0 1.032.836 1.864 1.868 1.864a1.867 1.867 0 1 0-1.868-1.864"/><g><path fill="#050505" stroke="#000" d="M158.36 170.86c-1.912-3.077-4.405-3.137-7.456-1.793-7.619 3.362-15.396 6.403-23.681 7.538-5.463.749-10.875 2.097-16.43 2.068-2.59-.014-3.339 1.316-2.836 3.572.822 3.69 1.776 7.329 3.046 10.843 1.444 3.997 6.049 4.567 4.078-1.564-.467-1.455-1.053-2.844-1.391-4.368-1.112-5.002-1.2-5.05 4.017-5.342 7.18-.4 14.442-.773 21.191-3.284 4.598-1.714 9.459-2.96 13.673-5.668 1.538-.992 2.207-.771 2.98 1.137.962 2.381 4.097 8.342 5.505 10.542 1.59.442 1.52-4.297 2.912-4.809-1.871-2.955-3.763-5.898-5.609-8.872zM171.736 199.714c.937 1.048.646 1.699-.618 2.408-8.367 4.7-17.22 8.096-26.463 10.63-5.944 1.628-3.721 5.136 1.806 3.716 9.816-2.518 16.513-5.08 25.597-9.527 5.08-2.484 5.915-4.37 3.308-9.28-1.297-2.446-2.906-4.73-4.375-7.083-1.729-.803-2.913.589-4.326 1.071 1.643 2.718 2.922 5.66 5.07 8.065z"/><path fill="#050505" stroke="#000" d="M137.41 189.155c.15.233.31.458.487.662 1.057 1.268 2.512 1.975 3.059 3.652.655 2.022.243 4.012 2.334 5.27 1.295.783.413 2.098.118 3.183-.556 2.021-.554 4.143 1.424 5.19 2.021 1.066 4.377 1.078 6.543-.03.952-.486 2.068-.994 1.53-2.358-.398-1.028-1.294-1.02-2.349-.927-1.924.173-4.59.82-2.21-2.804 1.169-1.776.186-3.516-1.556-4.67-1.513-1.003-2.69-2.039-2.477-4.222.118-1.184-.665-2.39-1.878-3.183-1.554-1.011-2.344-2.679-2.45-4.452-.109-1.825-.896-3.298-2.58-3.03-3.458.545-1.093 6.02.004 7.719"/><path fill="#36F2B9" stroke="#36F2B9" d="M163.776 195.33c2.946-2.045 8.412-6.003 10.722-8.783.446-.536.563-1.26.33-1.914l-3.254-9.129c-.473-1.32-2.13-1.742-3.16-.793-2.887 2.664-5.106 5.703-10.51 9.017-.796.484-1.038 1.517-.667 2.372l3.63 8.394a1.954 1.954 0 0 0 2.909.836"/></g></g></g></svg>