<?xml version="1.0" encoding="UTF-8"?>
<svg width="130px" height="16px" viewBox="0 0 130 16" version="1.1" xmlns="http://www.w3.org/2000/svg" xmlns:xlink="http://www.w3.org/1999/xlink">
    <!-- Generator: sketchtool 52.2 (67145) - http://www.bohemiancoding.com/sketch -->
    <title>90331848-7DBA-4AD7-A60C-3251F0358ABE</title>
    <desc>Created with sketchtool.</desc>
    <g id="Mobile-View" stroke="none" stroke-width="1" fill="none" fill-rule="evenodd">
        <g id="m.navigation" transform="translate(-33.000000, -89.000000)">
            <g id="Logo" transform="translate(33.000000, 90.000000)">
                <rect id="Rectangle" fill="#FFFFFF" x="0" y="3" width="130" height="6"></rect>
                <g id="Group" transform="translate(3.000000, 0.000000)">
                    <path d="M6.11090604,7.94088648 L2.7941371,7.94088648 L2.7941371,10.9160872 L6.20371524,10.9160872 C7.47114094,10.9160872 8.23449664,10.4523024 8.23449664,9.44773601 L8.23449664,9.40863613 C8.23449664,8.50091719 7.58251198,7.94088648 6.11090604,7.94088648 Z M7.50826462,3.99901624 C7.50826462,3.11054647 6.83771812,2.6082633 5.62655801,2.6082633 L2.7941371,2.6082633 L2.7941371,5.46796895 L5.44035954,5.46796895 C6.70662512,5.46796895 7.50826462,5.04268248 7.50826462,4.03811612 L7.50826462,3.99901624 Z M0,0 L6.05464046,0 C7.54596836,0 8.71942474,0.424684937 9.4642186,1.19765965 C10.0610978,1.81543788 10.3586673,2.56916341 10.3586673,3.49673306 L10.3586673,3.53583295 C10.3586673,5.06193165 9.57674976,5.91190306 8.64459732,6.45268459 C10.153907,7.05181518 11.0854794,7.96013566 11.0854794,9.77617507 L11.0854794,9.81467342 C11.0854794,12.2881925 9.14750719,13.5243505 6.20371524,13.5243505 L0,13.5243505 L0,0 Z" id="Fill-4" fill="#000000"></path>
                    <path d="M6.11090604,7.94088648 L2.7941371,7.94088648 L2.7941371,10.9160872 L6.20371524,10.9160872 C7.47114094,10.9160872 8.23449664,10.4523024 8.23449664,9.44773601 L8.23449664,9.40863613 C8.23449664,8.50091719 7.58251198,7.94088648 6.11090604,7.94088648 Z M7.50826462,3.99901624 C7.50826462,3.11054647 6.83771812,2.6082633 5.62655801,2.6082633 L2.7941371,2.6082633 L2.7941371,5.46796895 L5.44035954,5.46796895 C6.70662512,5.46796895 7.50826462,5.04268248 7.50826462,4.03811612 L7.50826462,3.99901624 Z M0,0 L6.05464046,0 C7.54596836,0 8.71942474,0.424684937 9.4642186,1.19765965 C10.0610978,1.81543788 10.3586673,2.56916341 10.3586673,3.49673306 L10.3586673,3.53583295 C10.3586673,5.06193165 9.57674976,5.91190306 8.64459732,6.45268459 C10.153907,7.05181518 11.0854794,7.96013566 11.0854794,9.77617507 L11.0854794,9.81467342 C11.0854794,12.2881925 9.14750719,13.5243505 6.20371524,13.5243505 L0,13.5243505 L0,0 Z" id="Stroke-6" stroke="#000000" stroke-width="0.650000036"></path>
                    <path d="M23.7756328,6.56878118 C25.1729914,6.56878118 25.9740508,5.79640801 25.9740508,4.65589436 L25.9740508,4.617396 C25.9740508,3.34273966 25.1173058,2.68526 23.7193672,2.68526 L20.8689645,2.68526 L20.8689645,6.56878118 L23.7756328,6.56878118 Z M18,0 L23.9618313,0 C25.6202157,0 26.9056232,0.483034001 27.7623682,1.37150376 C28.4891802,2.1252293 28.8807191,3.18814471 28.8807191,4.46280106 L28.8807191,4.50129941 C28.8807191,6.68487777 27.7443864,8.05698307 26.0854219,8.69401048 L29.2722579,13.5243505 L25.9177852,13.5243505 L23.1236481,9.19629366 L20.8689645,9.19629366 L20.8689645,13.5243505 L18,13.5243505 L18,0 Z" id="Fill-8" fill="#000000"></path>
                    <path d="M23.7756328,6.56878118 C25.1729914,6.56878118 25.9740508,5.79640801 25.9740508,4.65589436 L25.9740508,4.617396 C25.9740508,3.34273966 25.1173058,2.68526 23.7193672,2.68526 L20.8689645,2.68526 L20.8689645,6.56878118 L23.7756328,6.56878118 Z M18,0 L23.9618313,0 C25.6202157,0 26.9056232,0.483034001 27.7623682,1.37150376 C28.4891802,2.1252293 28.8807191,3.18814471 28.8807191,4.46280106 L28.8807191,4.50129941 C28.8807191,6.68487777 27.7443864,8.05698307 26.0854219,8.69401048 L29.2722579,13.5243505 L25.9177852,13.5243505 L23.1236481,9.19629366 L20.8689645,9.19629366 L20.8689645,13.5243505 L18,13.5243505 L18,0 Z" id="Stroke-10" stroke="#000000" stroke-width="0.650000036"></path>
                    <path d="M38,7.72854401 L38,0 L40.8689645,0 L40.8689645,7.65094578 C40.8689645,9.85377331 41.9310499,10.9936854 43.6828236,10.9936854 C45.4334372,10.9936854 46.4955225,9.8928732 46.4955225,7.74779319 L46.4955225,0 L49.3650671,0 L49.3650671,7.6316966 C49.3650671,11.7275603 47.1480872,13.7372945 43.6451198,13.7372945 C40.1421524,13.7372945 38,11.7083111 38,7.72854401" id="Fill-12" fill="#000000"></path>
                    <path d="M38,7.72854401 L38,0 L40.8689645,0 L40.8689645,7.65094578 C40.8689645,9.85377331 41.9310499,10.9936854 43.6828236,10.9936854 C45.4334372,10.9936854 46.4955225,9.8928732 46.4955225,7.74779319 L46.4955225,0 L49.3650671,0 L49.3650671,7.6316966 C49.3650671,11.7275603 47.1480872,13.7372945 43.6451198,13.7372945 C40.1421524,13.7372945 38,11.7083111 38,7.72854401 Z" id="Stroke-14" stroke="#000000" stroke-width="0.650000036"></path>
                    <path d="M57,7.03256601 L57,6.99406766 C57,3.14904483 59.7947172,0 63.8005944,0 C66.2600384,0 67.7316443,0.849971411 68.9428044,2.08612941 L67.1167833,4.26970777 C66.1109636,3.32288894 65.0860019,2.74300753 63.7814525,2.74300753 C61.5830345,2.74300753 60.0000575,4.63724672 60.0000575,6.95496777 L60.0000575,6.99406766 C60.0000575,9.31239025 61.5464909,11.2445263 63.7814525,11.2445263 C65.2727804,11.2445263 66.1852109,10.626748 67.2101726,9.66007848 L69.0361937,11.5729653 C67.6945206,13.0605657 66.2037728,13.9881353 63.6886433,13.9881353 C59.8504027,13.9881353 57,10.9160872 57,7.03256601" id="Fill-16" fill="#000000"></path>
                    <path d="M57,7.03256601 L57,6.99406766 C57,3.14904483 59.7947172,0 63.8005944,0 C66.2600384,0 67.7316443,0.849971411 68.9428044,2.08612941 L67.1167833,4.26970777 C66.1109636,3.32288894 65.0860019,2.74300753 63.7814525,2.74300753 C61.5830345,2.74300753 60.0000575,4.63724672 60.0000575,6.95496777 L60.0000575,6.99406766 C60.0000575,9.31239025 61.5464909,11.2445263 63.7814525,11.2445263 C65.2727804,11.2445263 66.1852109,10.626748 67.2101726,9.66007848 L69.0361937,11.5729653 C67.6945206,13.0605657 66.2037728,13.9881353 63.6886433,13.9881353 C59.8504027,13.9881353 57,10.9160872 57,7.03256601 Z" id="Stroke-18" stroke="#000000" stroke-width="0.650000036"></path>
                    <polygon id="Fill-20" fill="#000000" points="77 13.5243505 79.8689645 13.5243505 79.8689645 0 77 0"></polygon>
                    <polygon id="Stroke-22" stroke="#000000" stroke-width="0.650000036" points="77 13.5243505 79.8689645 13.5243505 79.8689645 0 77 0"></polygon>
                    <path d="M93.7756328,6.56878118 C95.1729914,6.56878118 95.9740508,5.79640801 95.9740508,4.65589436 L95.9740508,4.617396 C95.9740508,3.34273966 95.1173058,2.68526 93.7193672,2.68526 L90.8689645,2.68526 L90.8689645,6.56878118 L93.7756328,6.56878118 Z M88,0 L93.9618313,0 C95.6202157,0 96.9056232,0.483034001 97.7629482,1.37150376 C98.4891802,2.1252293 98.8807191,3.18814471 98.8807191,4.46280106 L98.8807191,4.50129941 C98.8807191,6.68487777 97.7443864,8.05698307 96.0854219,8.69401048 L99.2722579,13.5243505 L95.9177852,13.5243505 L93.1236481,9.19629366 L90.8689645,9.19629366 L90.8689645,13.5243505 L88,13.5243505 L88,0 Z" id="Fill-23" fill="#000000"></path>
                    <path d="M93.7756328,6.56878118 C95.1729914,6.56878118 95.9740508,5.79640801 95.9740508,4.65589436 L95.9740508,4.617396 C95.9740508,3.34273966 95.1173058,2.68526 93.7193672,2.68526 L90.8689645,2.68526 L90.8689645,6.56878118 L93.7756328,6.56878118 Z M88,0 L93.9618313,0 C95.6202157,0 96.9056232,0.483034001 97.7629482,1.37150376 C98.4891802,2.1252293 98.8807191,3.18814471 98.8807191,4.46280106 L98.8807191,4.50129941 C98.8807191,6.68487777 97.7443864,8.05698307 96.0854219,8.69401048 L99.2722579,13.5243505 L95.9177852,13.5243505 L93.1236481,9.19629366 L90.8689645,9.19629366 L90.8689645,13.5243505 L88,13.5243505 L88,0 Z" id="Stroke-24" stroke="#000000" stroke-width="0.650000036"></path>
                    <path d="M115.608054,7.96013566 L113.875422,3.5743313 L112.14221,7.96013566 L115.608054,7.96013566 Z M112.590014,0 L115.235077,0 L120.824511,13.6211979 L117.825034,13.6211979 L116.633015,10.5876481 L111.117828,10.5876481 L109.92523,13.6211979 L107,13.6211979 L112.590014,0 Z" id="Fill-25" fill="#000000"></path>
                    <path d="M115.608054,7.96013566 L113.875422,3.5743313 L112.14221,7.96013566 L115.608054,7.96013566 Z M112.590014,0 L115.235077,0 L120.824511,13.6211979 L117.825034,13.6211979 L116.633015,10.5876481 L111.117828,10.5876481 L109.92523,13.6211979 L107,13.6211979 L112.590014,0 Z" id="Stroke-26" stroke="#000000" stroke-width="0.650000036"></path>
                </g>
            </g>
        </g>
    </g>
</svg>