<svg xmlns="http://www.w3.org/2000/svg" xmlns:xlink="http://www.w3.org/1999/xlink" width="95" height="123"><defs><path id="a" d="M.526.051h45.892v90.907H.526z"/></defs><g fill="none" fill-rule="evenodd"><path fill="#36F2B9" d="M74.605 29.273c-15.86-20.799-39.67-15.329-51.474-4.067-12.585 12.007-12.67 37.329.402 47.809 2.097 1.68 3.838 3.36 5.29 4.999 3.27-.098 6.597-.35 9.832-.682 1.816-.186 3.25.267 5.084.309 1.73.038 3.76-.718 5.494-.69 5.219.084 10.426.48 15.3 2.182 1.996-2.343 4.276-4.552 6.065-6.176 4.11-3.733 7.329-8.378 9.133-13.628 5.82-16.932-5.126-30.056-5.126-30.056"/><g transform="translate(23.276 32.042)"><mask id="b" fill="#fff"><use xlink:href="#a"/></mask><path fill="#000" d="M42.77 62.882a1.72 1.72 0 0 1-1.718 1.716H6.616c-.947 0-1.718-.77-1.718-1.716v-.434c0-.946.77-1.716 1.718-1.716h34.436c.947 0 1.718.77 1.718 1.716v.434zM31.38 82.02c-5.398-2.452-10.586-1.046-12.945-.133-4.068-5.134-6.862-11.419-8.088-14.482h28.747c-1.528 6.259-4.7 11.143-7.714 14.615zm11.39-26.247v.434a1.72 1.72 0 0 1-1.718 1.717H6.616a1.72 1.72 0 0 1-1.718-1.717v-.434c0-.946.77-1.716 1.718-1.716h34.436c.947 0 1.718.77 1.718 1.716zM4.898 49.1c0-.946.77-1.716 1.718-1.716h34.436c.947 0 1.718.77 1.718 1.716v.435c0 .946-.77 1.716-1.718 1.716H6.616c-.947 0-1.718-.77-1.718-1.716V49.1zm3.847-19.59c-4.74-6.135-6.613-14.074-4.662-19.754 1.168-3.398 3.668-5.679 7.231-6.596 3.452-.888 6.345.368 8.162 1.58a14.238 14.238 0 0 1 2.183 1.797c-2.42 3.227-4.434 7.616-4.314 11.686.115 3.863 3.16 5.86 6.142 5.86h.094c2.8-.039 5.638-1.972 5.643-5.592.007-4.407-1.412-8.64-3.883-11.965.726-.771 1.445-1.381 2.094-1.766l.628-.394c2.435-1.437 5.05-1.854 7.566-1.206 3.563.917 6.064 3.198 7.232 6.596 1.95 5.68.077 13.619-4.663 19.754-3.545 4.59-5.197 10.2-5.941 15.066h-17.57c-.743-4.865-2.396-10.477-5.942-15.066zM23.516 8.8c1.852 2.747 2.904 6.147 2.899 9.687-.003 2.03-1.55 2.77-2.874 2.789h-.053c-1.572 0-3.27-.974-3.335-3.136-.09-3.04 1.463-6.594 3.363-9.34zm17.536 35.776h-5.961c.714-4.386 2.227-9.333 5.33-13.35 5.294-6.852 7.342-15.846 5.097-22.38-1.49-4.335-4.666-7.241-9.188-8.404-3.252-.838-6.605-.316-9.728 1.526l-.63.396c-.781.463-1.633 1.159-2.487 2.031a16.902 16.902 0 0 0-2.45-1.991C17.746.214 14.142-.466 10.613.442c-4.521 1.163-7.698 4.07-9.187 8.403-2.245 6.535-.198 15.53 5.095 22.38 3.105 4.018 4.617 8.965 5.331 13.351H6.616A4.53 4.53 0 0 0 2.089 49.1v.435c0 1.21.48 2.307 1.257 3.12a4.502 4.502 0 0 0-1.257 3.12v.433c0 1.21.48 2.308 1.257 3.12a4.5 4.5 0 0 0-1.257 3.12v.434a4.53 4.53 0 0 0 4.527 4.524h.712c1.45 3.88 7.381 18.306 17.066 23.39a1.41 1.41 0 0 0 1.388-.046c.533-.327 12.823-8.033 16.214-23.445a4.532 4.532 0 0 0 3.584-4.423v-.434c0-1.21-.48-2.308-1.258-3.12a4.502 4.502 0 0 0 1.258-3.12v-.434c0-1.21-.48-2.308-1.257-3.12a4.502 4.502 0 0 0 1.257-3.12V49.1a4.53 4.53 0 0 0-4.528-4.524z" mask="url(#b)"/></g><path fill="#FFF" d="M75.123 75.23l5.022 4.672"/><path fill="#000" d="M80.145 81.306a1.4 1.4 0 0 1-.957-.376l-5.023-4.672a1.403 1.403 0 1 1 1.915-2.055l5.022 4.672a1.403 1.403 0 0 1-.957 2.431"/><path fill="#FFF" d="M83.955 62.598l5.715 2.769"/><path fill="#000" d="M89.669 66.77c-.206 0-.414-.045-.612-.14l-5.715-2.77a1.405 1.405 0 0 1 1.226-2.525l5.715 2.769a1.403 1.403 0 0 1-.614 2.667"/><path fill="#FFF" d="M86.812 47.862h6.685"/><path fill="#000" d="M93.497 49.265h-6.685a1.404 1.404 0 1 1 0-2.807h6.685a1.404 1.404 0 1 1 0 2.807"/><path fill="#FFF" d="M83.666 32.95l6.489-2.719"/><path fill="#000" d="M83.666 34.355a1.405 1.405 0 0 1-.544-2.7l6.49-2.718a1.403 1.403 0 1 1 1.086 2.589l-6.489 2.72c-.178.073-.362.109-.543.109"/><path fill="#FFF" d="M75.063 20.495l5.092-4.824"/><path fill="#000" d="M75.063 21.9a1.403 1.403 0 0 1-.967-2.423l5.092-4.824a1.403 1.403 0 1 1 1.934 2.038l-5.092 4.823c-.272.257-.62.385-.967.385"/><path fill="#FFF" d="M62.423 11.9l2.721-6.14"/><path fill="#000" d="M62.422 13.304a1.404 1.404 0 0 1-1.283-1.973l2.72-6.14a1.404 1.404 0 1 1 2.568 1.137l-2.72 6.14a1.406 1.406 0 0 1-1.285.836"/><path fill="#FFF" d="M47.675 9.268V2.204"/><path fill="#000" d="M47.675 10.672a1.404 1.404 0 0 1-1.404-1.404V2.204a1.404 1.404 0 0 1 2.81 0v7.064c0 .775-.63 1.404-1.406 1.404"/><path fill="#FFF" d="M33.016 12.25l-2.721-6.49"/><path fill="#000" d="M33.017 13.654c-.55 0-1.07-.323-1.297-.861L29 6.302a1.404 1.404 0 0 1 2.59-1.084l2.722 6.49a1.404 1.404 0 0 1-1.295 1.946"/><path fill="#FFF" d="M20.463 20.407l-5.179-4.999"/><path fill="#000" d="M20.463 21.812c-.351 0-.703-.131-.976-.395l-5.179-5a1.404 1.404 0 1 1 1.953-2.018l5.179 5a1.403 1.403 0 0 1-.977 2.413"/><path fill="#FFF" d="M11.948 32.95l-6.32-2.631"/><path fill="#000" d="M11.948 34.355c-.18 0-.363-.035-.54-.109l-6.32-2.631a1.403 1.403 0 1 1 1.08-2.591l6.32 2.63a1.404 1.404 0 0 1-.54 2.7"/><path fill="#FFF" d="M8.788 47.774H2.205"/><path fill="#000" d="M8.788 49.178H2.205a1.404 1.404 0 1 1 0-2.808h6.583a1.404 1.404 0 1 1 0 2.808"/><path fill="#FFF" d="M11.948 62.51l-6.451 2.894"/><path fill="#000" d="M5.498 66.809a1.405 1.405 0 0 1-.576-2.685l6.451-2.895a1.403 1.403 0 1 1 1.15 2.56l-6.451 2.895a1.393 1.393 0 0 1-.574.125"/><path fill="#FFF" d="M20.288 75.14l-4.74 5"/><path fill="#000" d="M15.547 81.544a1.403 1.403 0 0 1-1.02-2.37l4.741-4.999a1.406 1.406 0 0 1 1.986-.053c.563.533.587 1.42.053 1.984l-4.74 5c-.276.29-.647.438-1.02.438"/><path fill="#FFF" d="M76.01 48.089c-.764 0-1.39-.612-1.404-1.379a14.865 14.865 0 0 0-.358-2.975 1.406 1.406 0 0 1 2.742-.613c.26 1.165.403 2.355.425 3.538a1.404 1.404 0 0 1-1.38 1.429h-.025zM74.377 40.578a1.406 1.406 0 0 1-1.335-.97c-2.148-6.598-4.494-8.464-8.38-11.553-.334-.266-.679-.54-1.033-.825a1.404 1.404 0 1 1 1.76-2.188c.351.282.692.553 1.023.816 4.001 3.182 6.892 5.48 9.302 12.882a1.403 1.403 0 0 1-1.337 1.838"/></g></svg>